<?xml version="1.0" standalone="no"?>
<!DOCTYPE svg PUBLIC "-//W3C//DTD SVG 20010904//EN"
 "http://www.w3.org/TR/2001/REC-SVG-20010904/DTD/svg10.dtd">
<svg version="1.0" xmlns="http://www.w3.org/2000/svg"
 width="1200.000000pt" height="1200.000000pt" viewBox="0 0 1200.000000 1200.000000"
 preserveAspectRatio="xMidYMid meet">
<metadata>
Created by potrace 1.11, written by Peter Selinger 2001-2013
</metadata>
<g transform="translate(0.000000,1200.000000) scale(0.100000,-0.100000)"
fill="#000000" stroke="none">
<path d="M5778 9795 c-2 -1 -41 -5 -88 -9 -97 -7 -281 -30 -355 -45 -27 -6
-63 -12 -80 -14 -16 -3 -48 -9 -70 -15 -22 -6 -51 -13 -65 -15 -94 -17 -368
-104 -540 -172 -81 -32 -373 -172 -435 -208 -11 -7 -47 -27 -80 -46 -33 -19
-62 -37 -65 -40 -6 -7 -33 -24 -74 -47 -75 -42 -305 -217 -431 -328 -577 -510
-978 -1161 -1174 -1906 -26 -103 -59 -250 -66 -305 -2 -11 -8 -49 -13 -85 -6
-36 -14 -96 -18 -135 -3 -38 -8 -79 -11 -90 -3 -11 -6 -139 -7 -285 -3 -237 1
-346 18 -475 3 -22 8 -65 12 -95 29 -261 158 -724 274 -986 47 -105 146 -302
182 -362 21 -34 38 -65 38 -68 0 -13 196 -299 269 -394 519 -666 1225 -1130
2051 -1349 126 -33 353 -77 452 -87 35 -3 66 -8 69 -10 16 -9 239 -19 439 -19
201 0 346 7 420 19 14 3 48 7 75 11 28 3 77 10 110 16 33 6 72 12 86 14 61 8
265 58 388 96 353 106 612 225 981 452 97 59 315 225 435 330 449 395 810 906
1025 1452 80 202 177 528 196 660 3 17 11 64 19 105 8 41 17 100 21 130 3 30
8 66 10 80 12 78 19 230 19 420 0 293 -11 425 -54 671 -21 119 -22 123 -41
204 -6 28 -13 59 -16 70 -19 97 -137 442 -195 573 -44 99 -145 300 -186 370
-24 40 -43 74 -43 77 0 6 -196 296 -224 330 -13 17 -55 68 -92 115 -171 215
-418 452 -655 631 -106 80 -342 239 -354 239 -3 0 -29 15 -58 33 -76 49 -323
168 -467 225 -295 117 -624 204 -900 237 -25 3 -63 7 -85 11 -22 3 -58 7 -80
10 -42 6 -561 14 -567 9z m-1483 -2650 c195 -49 451 -227 514 -358 67 -139
-35 -297 -191 -297 -56 0 -107 27 -170 91 -126 126 -233 175 -368 167 -109 -6
-204 -54 -310 -158 -110 -106 -181 -125 -279 -75 -74 37 -112 99 -113 186 0
63 30 118 108 195 127 125 284 215 434 249 41 9 80 18 85 20 29 9 229 -4 290
-20z m3199 -1336 c23 -6 57 -29 86 -58 69 -69 74 -98 67 -417 -5 -266 -7 -286
-33 -412 -75 -364 -332 -690 -695 -884 -132 -71 -353 -149 -484 -173 -97 -17
-153 -27 -175 -31 -49 -10 -396 -12 -480 -3 -71 8 -158 23 -265 44 -34 7 -187
54 -240 74 -339 127 -627 372 -780 666 -50 97 -106 265 -119 360 -21 148 -25
216 -24 427 0 224 1 240 23 286 23 50 79 102 130 120 43 15 2935 16 2989 1z"/>
</g>
</svg>
