<?xml version="1.0" encoding="UTF-8" standalone="no"?>
<svg width="124px" height="80px" viewBox="0 0 124 80" version="1.1" xmlns="http://www.w3.org/2000/svg" xmlns:xlink="http://www.w3.org/1999/xlink">
    <!-- Generator: Sketch 40.2 (33826) - http://www.bohemiancoding.com/sketch -->
    <title>Imported-Layers</title>
    <desc>Created with Sketch.</desc>
    <defs></defs>
    <g id="Page-1" stroke="none" stroke-width="1" fill="none" fill-rule="evenodd">
        <g id="Artboard" transform="translate(-874.000000, -184.000000)" fill="#FF0B80">
            <path d="M989.978663,184 L881.459403,184 C877.411861,184 874,187.497658 874,191.811171 L874,256.068468 C874,260.381982 877.411861,263.878919 881.621136,263.878919 L911.264667,263.878919 C914.44307,263.878919 917.167214,261.886126 918.312002,259.052252 L926.931662,237.715315 C928.385149,234.117478 931.844124,231.586306 935.880414,231.586306 C939.916705,231.586306 943.375679,234.117478 944.829166,237.715315 L953.448826,259.052252 C954.593614,261.886126 957.317758,263.878919 960.334429,263.878919 L989.978663,263.878919 C994.348967,263.878919 997.760828,260.381982 997.760828,256.068468 L997.760828,191.811171 C997.760828,187.497658 994.348967,184 989.978663,184 L989.978663,184 L989.978663,184 Z M907.811318,237.996396 C900.228857,237.996396 894.089336,231.706666 894.089336,223.93946 C894.089336,216.172252 900.228857,209.883243 907.811318,209.883243 C915.393075,209.883243 921.519939,216.172252 921.519939,223.93946 C921.519939,231.706666 915.379714,237.996396 907.811318,237.996396 L907.811318,237.996396 L907.811318,237.996396 Z M963.956542,237.98991 C956.378301,237.98991 950.240889,231.703063 950.240889,223.93946 C950.240889,216.176577 956.378301,209.88973 963.956542,209.88973 C971.534784,209.88973 977.672196,216.176577 977.672196,223.93946 C977.672196,231.703063 971.534784,237.98991 963.956542,237.98991 L963.956542,237.98991 L963.956542,237.98991 Z" id="Imported-Layers"></path>
        </g>
    </g>
</svg>