<?xml version="1.0" encoding="UTF-8" standalone="no"?>
<svg width="111px" height="32px" viewBox="0 0 111 32" version="1.1" xmlns="http://www.w3.org/2000/svg" xmlns:xlink="http://www.w3.org/1999/xlink" xmlns:sketch="http://www.bohemiancoding.com/sketch/ns">
    <!-- Generator: Sketch 3.3.1 (12002) - http://www.bohemiancoding.com/sketch -->
    <title>Slice 1</title>
    <desc>Created with Sketch.</desc>
    <defs></defs>
    <g id="Page-1" stroke="none" stroke-width="1" fill="none" fill-rule="evenodd" sketch:type="MSPage">
        <g id="cross" sketch:type="MSLayerGroup" fill="#E50048">
            <path d="M31.922,9.343 C32.484,8.818 32.807,8.084 32.817,7.315 C32.825,6.545 32.516,5.805 31.965,5.267 L28.143,1.53 C27.608,1.007 26.887,0.718 26.137,0.727 C25.389,0.736 24.676,1.041 24.155,1.577 L16.958,8.954 L9.862,1.562 C9.303,0.979 8.537,0.643 7.73,0.627 C6.923,0.61 6.142,0.916 5.561,1.475 L1.866,5.025 C1.31,5.558 0.998,6.294 1,7.065 C1.002,7.835 1.318,8.57 1.876,9.101 L9.622,16.469 L2.764,23.497 C1.718,24.568 1.693,26.271 2.706,27.376 L5.376,30.277 C5.885,30.833 6.594,31.158 7.346,31.186 C8.097,31.214 8.829,30.942 9.378,30.427 L16.9,23.392 L24.239,30.372 C24.784,30.891 25.511,31.169 26.263,31.144 C27.015,31.123 27.726,30.8 28.242,30.249 L30.933,27.372 C31.955,26.275 31.947,24.572 30.91,23.492 L24.23,16.528 L31.922,9.343 L31.922,9.343 Z" id="Shape" sketch:type="MSShapeGroup"></path>
        </g>
        <g id="cross-copy" sketch:type="MSLayerGroup" transform="translate(77.000000, 0.000000)" fill="#E50048">
            <path d="M31.922,9.343 C32.484,8.818 32.807,8.084 32.817,7.315 C32.825,6.545 32.516,5.805 31.965,5.267 L28.143,1.53 C27.608,1.007 26.887,0.718 26.137,0.727 C25.389,0.736 24.676,1.041 24.155,1.577 L16.958,8.954 L9.862,1.562 C9.303,0.979 8.537,0.643 7.73,0.627 C6.923,0.61 6.142,0.916 5.561,1.475 L1.866,5.025 C1.31,5.558 0.998,6.294 1,7.065 C1.002,7.835 1.318,8.57 1.876,9.101 L9.622,16.469 L2.764,23.497 C1.718,24.568 1.693,26.271 2.706,27.376 L5.376,30.277 C5.885,30.833 6.594,31.158 7.346,31.186 C8.097,31.214 8.829,30.942 9.378,30.427 L16.9,23.392 L24.239,30.372 C24.784,30.891 25.511,31.169 26.263,31.144 C27.015,31.123 27.726,30.8 28.242,30.249 L30.933,27.372 C31.955,26.275 31.947,24.572 30.91,23.492 L24.23,16.528 L31.922,9.343 L31.922,9.343 Z" id="Shape" sketch:type="MSShapeGroup"></path>
        </g>
        <g id="cross-copy-2" sketch:type="MSLayerGroup" transform="translate(38.000000, 0.000000)" fill="#E50048">
            <path d="M31.922,9.343 C32.484,8.818 32.807,8.084 32.817,7.315 C32.825,6.545 32.516,5.805 31.965,5.267 L28.143,1.53 C27.608,1.007 26.887,0.718 26.137,0.727 C25.389,0.736 24.676,1.041 24.155,1.577 L16.958,8.954 L9.862,1.562 C9.303,0.979 8.537,0.643 7.73,0.627 C6.923,0.61 6.142,0.916 5.561,1.475 L1.866,5.025 C1.31,5.558 0.998,6.294 1,7.065 C1.002,7.835 1.318,8.57 1.876,9.101 L9.622,16.469 L2.764,23.497 C1.718,24.568 1.693,26.271 2.706,27.376 L5.376,30.277 C5.885,30.833 6.594,31.158 7.346,31.186 C8.097,31.214 8.829,30.942 9.378,30.427 L16.9,23.392 L24.239,30.372 C24.784,30.891 25.511,31.169 26.263,31.144 C27.015,31.123 27.726,30.8 28.242,30.249 L30.933,27.372 C31.955,26.275 31.947,24.572 30.91,23.492 L24.23,16.528 L31.922,9.343 L31.922,9.343 Z" id="Shape" sketch:type="MSShapeGroup"></path>
        </g>
    </g>
</svg>