<?xml version="1.0" encoding="UTF-8" standalone="no"?>
<svg width="80px" height="80px" viewBox="0 0 80 80" version="1.1" xmlns="http://www.w3.org/2000/svg" xmlns:xlink="http://www.w3.org/1999/xlink">
    <!-- Generator: Sketch 40.2 (33826) - http://www.bohemiancoding.com/sketch -->
    <title>Group 2</title>
    <desc>Created with Sketch.</desc>
    <defs></defs>
    <g id="Page-1" stroke="none" stroke-width="1" fill="none" fill-rule="evenodd">
        <g id="Artboard" transform="translate(-585.000000, -401.000000)" fill="#C06C84">
            <g id="Group" transform="translate(494.000000, 401.000000)">
                <g id="Group-2" transform="translate(91.000000, 0.000000)">
                    <path d="M80,40 C80,17.90861 62.09139,0 40,0 C17.90861,0 0,17.90861 0,40 C0,62.09139 17.90861,80 40,80 C62.09139,80 80,62.09139 80,40 Z M7.40740741,40 C7.40740741,21.9996082 21.9996082,7.40740741 40,7.40740741 C58.0003918,7.40740741 72.5925926,21.9996082 72.5925926,40 C72.5925926,58.0003918 58.0003918,72.5925926 40,72.5925926 C21.9996082,72.5925926 7.40740741,58.0003918 7.40740741,40 Z" id="Oval"></path>
                    <path d="M59.9640986,59.6450484 C66.7066821,52.9024649 62.1779941,39.2137084 51.3579712,28.3936855 C40.5379483,17.5736626 26.8491918,13.0449746 20.1066084,19.7875581 C13.3640249,26.5301416 17.8927129,40.218898 28.7127358,51.0389209 C39.5327587,61.8589439 53.2215151,66.3876318 59.9640986,59.6450484 Z M25.3444364,25.0253861 C28.2156985,22.1541239 37.8202546,25.331625 46.1201432,33.6315135 C54.4200318,41.9314021 57.5975328,51.5359582 54.7262706,54.4072203 C51.8550084,57.2784825 42.2504524,54.1009815 33.9505638,45.8010929 C25.6506752,37.5012043 22.4731742,27.8966483 25.3444364,25.0253861 Z" id="Oval"></path>
                    <path d="M64.1094276,15.6159077 C57.2093333,8.71581345 41.8716457,15.2084542 28.6864144,28.3936855 C15.5011831,41.5789168 9.00854231,56.9166044 15.9086366,63.8166987 C22.8087309,70.716793 38.1464185,64.2241522 51.3316498,51.0389209 C64.5168811,37.8536896 71.0095219,22.516002 64.1094276,15.6159077 Z M29.5299851,57.6497514 C25.1424529,59.5070503 22.1391676,59.5715737 21.1464646,58.5788707 C20.1537616,57.5861677 20.218285,54.5828824 22.0755839,50.1953502 C24.2582531,45.0391897 28.4689627,39.0867932 33.9242424,33.6315135 C39.379522,28.1762339 45.3319186,23.9655242 50.4880791,21.782855 C54.8756113,19.9255561 57.8788965,19.8610327 58.8715996,20.8537358 C59.8643026,21.8464388 59.7997792,24.849724 57.9424803,29.2372563 C55.7598111,34.3934167 51.5491014,40.3458133 46.0938218,45.8010929 C40.6385421,51.2563726 34.6861456,55.4670823 29.5299851,57.6497514 Z" id="Oval"></path>
                    <polygon id="Line" points="21.1694306 64.0683974 23.7883446 61.4494834 18.5505166 56.2116554 15.9316026 58.8305694 6.26997488 68.4921971 3.65106088 71.1111111 8.88888889 76.3489391 11.5078029 73.7300251"></polygon>
                    <polygon id="Line" points="73.7620232 9.99432329 76.3809372 7.37540929 71.1431092 2.13758128 68.5241952 4.75649528 58.8625675 14.418123 56.2436535 17.037037 61.4814815 22.274865 64.1003955 19.655951"></polygon>
                </g>
            </g>
        </g>
    </g>
</svg>