<?xml version="1.0" encoding="UTF-8" standalone="no"?>
<svg width="130px" height="93px" viewBox="0 0 130 93" version="1.1" xmlns="http://www.w3.org/2000/svg" xmlns:xlink="http://www.w3.org/1999/xlink">
    <!-- Generator: Sketch 40.2 (33826) - http://www.bohemiancoding.com/sketch -->
    <title>Shape</title>
    <desc>Created with Sketch.</desc>
    <defs></defs>
    <g id="Page-1" stroke="none" stroke-width="1" fill="none" fill-rule="evenodd">
        <g id="Artboard" transform="translate(-140.000000, -175.000000)" fill="#355C7D">
            <path d="M248.333333,256.5 C254.291667,256.5 259.1125,251.625 259.1125,245.666667 L259.166667,186.083333 C259.166667,180.125 254.291667,175.25 248.333333,175.25 L161.666667,175.25 C155.708333,175.25 150.833333,180.125 150.833333,186.083333 L150.833333,245.666667 C150.833333,251.625 155.708333,256.5 161.666667,256.5 L140,256.5 C140,262.458333 144.875,267.333333 150.833333,267.333333 L259.166667,267.333333 C265.125,267.333333 270,262.458333 270,256.5 L248.333333,256.5 L248.333333,256.5 Z M161.666667,186.083333 L248.333333,186.083333 L248.333333,245.666667 L161.666667,245.666667 L161.666667,186.083333 L161.666667,186.083333 Z M205,261.916667 C202.020833,261.916667 199.583333,259.479167 199.583333,256.5 C199.583333,253.520833 202.020833,251.083333 205,251.083333 C207.979167,251.083333 210.416667,253.520833 210.416667,256.5 C210.416667,259.479167 207.979167,261.916667 205,261.916667 L205,261.916667 Z" id="Shape"></path>
        </g>
    </g>
</svg>