<?xml version="1.0" encoding="UTF-8" standalone="no"?>
<svg width="74px" height="74px" viewBox="0 0 74 74" version="1.1" xmlns="http://www.w3.org/2000/svg" xmlns:xlink="http://www.w3.org/1999/xlink">
    <!-- Generator: Sketch 40.2 (33826) - http://www.bohemiancoding.com/sketch -->
    <title>Twemoji_1f389 (1)</title>
    <desc>Created with Sketch.</desc>
    <defs>
        <polygon id="path-1" points="0 77.5510204 77.5510204 77.5510204 77.5510204 0 0 0"></polygon>
    </defs>
    <g id="Page-1" stroke="none" stroke-width="1" fill="none" fill-rule="evenodd">
        <g id="Artboard" transform="translate(-910.000000, -400.000000)">
            <g id="Twemoji_1f389-(1)" transform="translate(908.000000, 397.000000)">
                <g id="svg2">
                    <g id="g12" transform="translate(39.000000, 39.183673) scale(1, -1) translate(-39.000000, -39.183673) translate(0.000000, 0.183673)">
                        <g id="g14">
                            <g id="g16-Clipped">
                                <mask id="mask-2" fill="white">
                                    <use xlink:href="#path-1"></use>
                                </mask>
                                <g id="path20"></g>
                                <g id="g16" mask="url(#mask-2)">
                                    <g transform="translate(1.000000, 1.000000)">
                                        <g id="g22" transform="translate(0.277551, 0.044286)">
                                            <path d="M24.4897959,59.1836735 C24.2612245,58.955102 24.0877551,58.6795918 23.9428571,58.377551 L23.9265306,58.3938776 L1.03673469,6.83265306 L1.05918367,6.81020408 C0.634693878,5.9877551 1.34489796,4.31428571 2.8,2.85714286 C4.25306122,1.40408163 5.92653061,0.693877551 6.74897959,1.11836735 L6.76938776,1.09795918 L58.3346939,23.9857143 L58.3183673,24.0040816 C58.6204082,24.1469388 58.8938776,24.3204082 59.1244898,24.5510204 C62.3122449,27.7387755 57.1428571,38.0755102 47.5795918,47.6387755 C38.0163265,57.2040816 27.677551,62.3714286 24.4897959,59.1836735" id="path24" fill="#FF0B80"></path>
                                        </g>
                                        <g id="g26" transform="translate(1.040816, 1.040816)">
                                            <path d="M26.5306122,48.9795918 L0.848979592,7.13061224 L0.273469388,5.83469388 L0.295918367,5.81428571 C-0.128571429,4.98979592 0.581632653,3.31836735 2.03673469,1.86122449 C2.51020408,1.3877551 3,1.02857143 3.48367347,0.724489796 L34.6938776,38.7755102 L26.5306122,48.9795918 L26.5306122,48.9795918 Z" id="path28" fill="#EA596E"></path>
                                        </g>
                                        <g id="g30" transform="translate(23.513673, 23.355306)">
                                            <path d="M24.4897959,24.4897959 C34.0204082,14.955102 39.3122449,4.79183673 36.3040816,1.78571429 C33.2979592,-1.22040816 23.1346939,4.06938776 13.5979592,13.6 C4.06530612,23.1346939 -1.2244898,33.3 1.78163265,36.3081633 C4.78979592,39.3142857 14.9530612,34.022449 24.4897959,24.4897959" id="path32" fill="#A0041E"></path>
                                        </g>
                                        <g id="g34" transform="translate(30.815918, 44.695102)">
                                            <path d="M8.16326531,2.04081633 C7.75714286,1.7122449 7.22653061,1.54081633 6.66530612,1.60204082 C4.89387755,1.79387755 3.40408163,2.41020408 2.36122449,3.38367347 C1.25714286,4.41428571 0.712244898,5.79591837 0.86122449,7.18367347 C1.12244898,9.61632653 3.56326531,11.8489796 7.7244898,11.3979592 C9.34285714,11.2244898 10.0653061,11.744898 10.0877551,11.9938776 C10.1163265,12.2408163 9.52244898,12.9040816 7.90612245,13.0795918 C6.13265306,13.2714286 4.64489796,13.8877551 3.6,14.8612245 C2.49591837,15.8918367 1.94897959,17.2755102 2.1,18.6612245 C2.36530612,21.0938776 4.80408163,23.3265306 8.96122449,22.8755102 C10.1408163,22.7489796 10.7612245,22.9938776 11.0244898,23.1510204 C11.2367347,23.2795918 11.3204082,23.4020408 11.3285714,23.4714286 C11.3510204,23.7183673 10.7653061,24.3816327 9.14285714,24.5571429 C8.0244898,24.6795918 7.2122449,25.6836735 7.33469388,26.8061224 C7.45510204,27.9265306 8.45918367,28.7367347 9.58163265,28.6142857 C13.7387755,28.1673469 15.6489796,25.4673469 15.3857143,23.0326531 C15.122449,20.6 12.6836735,18.3693878 8.52244898,18.8183673 C7.34285714,18.9469388 6.7244898,18.7020408 6.46122449,18.544898 C6.25102041,18.4163265 6.16530612,18.2918367 6.15714286,18.2244898 C6.13061224,17.9755102 6.72040816,17.3122449 8.34285714,17.1367347 C12.5,16.6897959 14.4102041,13.9897959 14.1469388,11.555102 C13.8836735,9.12244898 11.4428571,6.88979592 7.28571429,7.34081633 C6.10612245,7.46734694 5.48571429,7.2244898 5.22040816,7.06734694 C5.01020408,6.93877551 4.92857143,6.81428571 4.92040816,6.74489796 C4.89387755,6.49795918 5.48367347,5.83469388 7.10408163,5.65918367 C8.22244898,5.53877551 9.03673469,4.53265306 8.9122449,3.4122449 C8.85306122,2.85102041 8.56938776,2.36938776 8.16326531,2.04081633" id="path36" fill="#AA8DD8"></path>
                                        </g>
                                        <g id="g38" transform="translate(59.532857, 1.331837)">
                                            <path d="M4.08163265,26.5306122 C8.10816327,27.6673469 10.8857143,25.8714286 11.5469388,23.5142857 C12.2081633,21.1591837 10.7755102,18.177551 6.75306122,17.0469388 C5.18163265,16.6061224 4.71020408,15.855102 4.77346939,15.6142857 C4.84285714,15.3734694 5.64081633,14.977551 7.20816327,15.422449 C11.2326531,16.5530612 14.0102041,14.7571429 14.6714286,12.4020408 C15.3387755,10.044898 13.9020408,7.06734694 9.8755102,5.93265306 C8.30612245,5.49183673 7.83265306,4.73877551 7.90204082,4.5 C7.96938776,4.26122449 8.76530612,3.86734694 10.3346939,4.30612245 C11.4183673,4.6122449 12.5469388,3.97959184 12.8530612,2.89591837 C13.155102,1.81020408 12.5244898,0.683673469 11.4367347,0.37755102 C7.41632653,-0.755102041 4.63469388,1.03673469 3.96938776,3.39591837 C3.30816327,5.75102041 4.74285714,8.72857143 8.77142857,9.86326531 C10.3408163,10.3061224 10.8142857,11.055102 10.744898,11.2959184 C10.677551,11.5346939 9.88367347,11.9326531 8.31428571,11.4918367 C4.2877551,10.3571429 1.51020408,12.1489796 0.846938776,14.5081633 C0.183673469,16.8653061 1.61836735,19.8428571 5.64693878,20.977551 C7.2122449,21.4163265 7.68571429,22.1714286 7.61836735,22.4081633 C7.54897959,22.6510204 6.75714286,23.0469388 5.18571429,22.6040816 C4.1,22.2979592 2.9755102,22.9306122 2.66938776,24.0163265 C2.36326531,25.1 2.99591837,26.2265306 4.08163265,26.5306122" id="path40" fill="#77B255"></path>
                                        </g>
                                        <g id="g42" transform="translate(43.900000, 33.366939)">
                                            <path d="M4.08163265,0 C3.48163265,0 2.88979592,0.263265306 2.48571429,0.765306122 C1.78163265,1.64693878 1.9244898,2.93061224 2.80408163,3.63469388 C3.24897959,3.99183673 13.8612245,12.3265306 28.8591837,10.1816327 C29.9755102,10.022449 30.7489796,8.98979592 30.5897959,7.87346939 C30.4306122,6.75918367 29.4061224,5.9755102 28.2795918,6.14285714 C15.0285714,8.0244898 5.44897959,0.52244898 5.35510204,0.446938776 C4.97755102,0.144897959 4.52857143,0 4.08163265,0" id="path44" fill="#AA8DD8"></path>
                                        </g>
                                        <g id="g46" transform="translate(4.621224, 41.857143)">
                                            <path d="M8.16326531,0 C7.96938776,0 7.77142857,0.0285714286 7.5755102,0.0857142857 C6.49591837,0.410204082 5.88367347,1.54897959 6.20816327,2.62857143 C8.52040816,10.3285714 10.6163265,22.6163265 8.04081633,25.8183673 C7.75102041,26.1816327 7.31836735,26.5387755 6.32244898,26.4632653 C4.40612245,26.3183673 4.58979592,22.277551 4.59183673,22.2367347 C4.67755102,21.1122449 3.83265306,20.1326531 2.71020408,20.0489796 C1.56938776,19.9795918 0.604081633,20.8081633 0.52244898,21.9326531 C0.310204082,24.7469388 1.1877551,30.1673469 6.01428571,30.5326531 C8.16938776,30.6959184 9.95918367,29.9469388 11.2244898,28.3755102 C16.0632653,22.3530612 11.1510204,4.89183673 10.1163265,1.45306122 C9.85102041,0.569387755 9.04081633,0 8.16326531,0" id="path48" fill="#77B255"></path>
                                        </g>
                                        <g id="g50" transform="translate(50.020408, 51.040816)">
                                            <path d="M6.12244898,4.08163265 C6.12244898,2.39183673 4.75102041,1.02040816 3.06122449,1.02040816 C1.37142857,1.02040816 0,2.39183673 0,4.08163265 C0,5.77142857 1.37142857,7.14285714 3.06122449,7.14285714 C4.75102041,7.14285714 6.12244898,5.77142857 6.12244898,4.08163265" id="path52" fill="#5C913B"></path>
                                        </g>
                                        <g id="g54" transform="translate(1.040816, 33.693878)">
                                            <path d="M8.16326531,4.08163265 C8.16326531,1.82857143 6.33469388,0 4.08163265,0 C1.82857143,0 0,1.82857143 0,4.08163265 C0,6.33469388 1.82857143,8.16326531 4.08163265,8.16326531 C6.33469388,8.16326531 8.16326531,6.33469388 8.16326531,4.08163265" id="path56" fill="#9266CC"></path>
                                        </g>
                                        <g id="g58" transform="translate(64.306122, 30.632653)">
                                            <path d="M6.12244898,4.08163265 C6.12244898,2.39183673 4.75102041,1.02040816 3.06122449,1.02040816 C1.37142857,1.02040816 0,2.39183673 0,4.08163265 C0,5.77142857 1.37142857,7.14285714 3.06122449,7.14285714 C4.75102041,7.14285714 6.12244898,5.77142857 6.12244898,4.08163265" id="path60" fill="#5C913B"></path>
                                        </g>
                                        <g id="g62" transform="translate(45.938776, 6.142857)">
                                            <path d="M6.12244898,4.08163265 C6.12244898,2.39183673 4.75102041,1.02040816 3.06122449,1.02040816 C1.37142857,1.02040816 0,2.39183673 0,4.08163265 C0,5.77142857 1.37142857,7.14285714 3.06122449,7.14285714 C4.75102041,7.14285714 6.12244898,5.77142857 6.12244898,4.08163265" id="path64" fill="#5C913B"></path>
                                        </g>
                                        <g id="g66" transform="translate(54.102041, 62.265306)">
                                            <path d="M8.16326531,4.08163265 C8.16326531,1.82857143 6.33469388,0 4.08163265,0 C1.82857143,0 0,1.82857143 0,4.08163265 C0,6.33469388 1.82857143,8.16326531 4.08163265,8.16326531 C6.33469388,8.16326531 8.16326531,6.33469388 8.16326531,4.08163265" id="path68" fill="#FFCC4D"></path>
                                        </g>
                                        <g id="g70" transform="translate(64.306122, 53.081633)">
                                            <path d="M6.12244898,4.08163265 C6.12244898,2.39183673 4.75102041,1.02040816 3.06122449,1.02040816 C1.37142857,1.02040816 0,2.39183673 0,4.08163265 C0,5.77142857 1.37142857,7.14285714 3.06122449,7.14285714 C4.75102041,7.14285714 6.12244898,5.77142857 6.12244898,4.08163265" id="path72" fill="#FFCC4D"></path>
                                        </g>
                                        <g id="g74" transform="translate(58.183673, 44.918367)">
                                            <path d="M6.12244898,4.08163265 C6.12244898,2.39183673 4.75102041,1.02040816 3.06122449,1.02040816 C1.37142857,1.02040816 0,2.39183673 0,4.08163265 C0,5.77142857 1.37142857,7.14285714 3.06122449,7.14285714 C4.75102041,7.14285714 6.12244898,5.77142857 6.12244898,4.08163265" id="path76" fill="#FFCC4D"></path>
                                        </g>
                                        <g id="g78" transform="translate(13.285714, 22.469388)">
                                            <path d="M6.12244898,4.08163265 C6.12244898,2.39183673 4.75102041,1.02040816 3.06122449,1.02040816 C1.37142857,1.02040816 0,2.39183673 0,4.08163265 C0,5.77142857 1.37142857,7.14285714 3.06122449,7.14285714 C4.75102041,7.14285714 6.12244898,5.77142857 6.12244898,4.08163265" id="path80" fill="#FFCC4D"></path>
                                        </g>
                                    </g>
                                </g>
                            </g>
                        </g>
                    </g>
                </g>
            </g>
        </g>
    </g>
</svg>