<?xml version="1.0" encoding="UTF-8" standalone="no"?>
<svg width="65px" height="110px" viewBox="0 0 65 110" version="1.1" xmlns="http://www.w3.org/2000/svg" xmlns:xlink="http://www.w3.org/1999/xlink">
    <!-- Generator: Sketch 40.2 (33826) - http://www.bohemiancoding.com/sketch -->
    <title>Shape</title>
    <desc>Created with Sketch.</desc>
    <defs></defs>
    <g id="Page-1" stroke="none" stroke-width="1" fill="none" fill-rule="evenodd">
        <g id="Artboard" transform="translate(-547.000000, -169.000000)" fill="#C06C84">
            <path d="M599.5,169 L559.5,169 C552.6,169 547,174.6 547,181.5 L547,266.5 C547,273.4 552.6,279 559.5,279 L599.5,279 C606.4,279 612,273.4 612,266.5 L612,181.5 C612,174.6 606.4,169 599.5,169 L599.5,169 Z M579.5,274 C575.35,274 572,270.65 572,266.5 C572,262.35 575.35,259 579.5,259 C583.65,259 587,262.35 587,266.5 C587,270.65 583.65,274 579.5,274 L579.5,274 Z M602,254 L557,254 L557,184 L602,184 L602,254 L602,254 Z" id="Shape"></path>
        </g>
    </g>
</svg>