<?xml version="1.0" encoding="UTF-8" standalone="no"?>
<svg width="80px" height="37px" viewBox="0 0 80 37" version="1.1" xmlns="http://www.w3.org/2000/svg" xmlns:xlink="http://www.w3.org/1999/xlink" xmlns:sketch="http://www.bohemiancoding.com/sketch/ns">
    <!-- Generator: Sketch 3.5.1 (25234) - http://www.bohemiancoding.com/sketch -->
    <title>Oval 1 Copy 2 + Shape + Shape Copy Copy Copy Copy + Oval 5 Copy</title>
    <desc>Created with Sketch.</desc>
    <defs></defs>
    <g id="VisualDesign" stroke="none" stroke-width="1" fill="none" fill-rule="evenodd" sketch:type="MSPage">
        <g id="geildanke.com" sketch:type="MSArtboardGroup" transform="translate(-42.000000, -38.000000)">
            <g id="Oval-1-Copy-2-+-Shape-+-Shape-Copy-Copy-Copy-Copy-+-Oval-5-Copy" sketch:type="MSLayerGroup" transform="translate(43.000000, 39.000000)">
                <path d="M39.3009709,34.1085937 C48.8560332,34.1085937 56.6019417,26.473125 56.6019417,17.0542969 C56.6019417,7.63546879 48.8560332,0 39.3009709,0 C29.7459085,0 22,7.63546879 22,17.0542969 C22,26.473125 29.7459085,34.1085937 39.3009709,34.1085937 Z M31.9048759,20.4515605 C31.9048759,24.760274 35.6029234,26.9038048 39.3009709,26.9038048 C42.9990183,26.9038048 46.6970658,24.760274 46.6970658,20.4515605 L46.6970658,18.7935685 C46.6970658,18.2522728 46.2551608,17.7975845 45.7202231,17.7975845 L32.9049768,17.7975845 C32.3700391,17.7975845 31.9048759,18.2522728 31.9048759,18.7935685 L31.9048759,20.4515605 Z M27.5500417,13.355056 C27.7162632,13.1418939 27.9950292,12.8583864 28.3847679,12.5780488 C29.0492648,12.1000787 29.8150094,11.8068209 30.6690404,11.8068209 C31.5230713,11.8068209 32.2888159,12.1000787 32.9533128,12.5780488 C33.3430515,12.8583864 33.6218175,13.1418939 33.788039,13.355056 C34.1077234,13.7650186 34.0297315,14.3528195 33.6138392,14.6679459 C33.1979469,14.9830724 32.6016441,14.9061925 32.2819596,14.4962299 C32.2176438,14.4137515 32.0603658,14.2537983 31.8335843,14.0906752 C31.4705474,13.8295442 31.078343,13.6793413 30.6690404,13.6793413 C30.2597377,13.6793413 29.8675333,13.8295442 29.5044965,14.0906752 C29.2777149,14.2537983 29.1204369,14.4137515 29.0561211,14.4962299 C28.7364366,14.9061925 28.1401338,14.9830724 27.7242415,14.6679459 C27.3083492,14.3528195 27.2303573,13.7650186 27.5500417,13.355056 Z" id="Oval-1-Copy-2" fill="#343434" sketch:type="MSShapeGroup"></path>
                <path d="M42.7295711,27.5461931 C64.1420543,19.7526866 79.8540776,8.91183787 77.8233573,3.33247977 C75.7926371,-2.24687833 56.7881657,-0.451956383 35.3756825,7.34155014 C13.9631993,15.1350567 -1.74882394,25.9759054 0.281896331,31.5552635 C2.3126166,37.1346216 21.317088,35.3396996 42.7295711,27.5461931 Z" id="Oval-5-Copy" stroke="#343434" stroke-width="2" sketch:type="MSShapeGroup"></path>
            </g>
        </g>
    </g>
</svg>