<?xml version="1.0" encoding="UTF-8" standalone="no"?>
<svg width="35px" height="35px" viewBox="0 0 35 35" version="1.1" xmlns="http://www.w3.org/2000/svg" xmlns:xlink="http://www.w3.org/1999/xlink" xmlns:sketch="http://www.bohemiancoding.com/sketch/ns">
    <!-- Generator: Sketch 3.5.1 (25234) - http://www.bohemiancoding.com/sketch -->
    <title>Oval 1 Copy 2 + Shape + Shape Copy Copy Copy Copy + Oval 5 Copy</title>
    <desc>Created with Sketch.</desc>
    <defs></defs>
    <g id="VisualDesign" stroke="none" stroke-width="1" fill="none" fill-rule="evenodd" sketch:type="MSPage">
        <g id="geildanke.com" sketch:type="MSArtboardGroup" transform="translate(-42.000000, -62.000000)" fill="#343434">
            <g id="Oval-1-Copy-2-+-Shape-+-Shape-Copy-Copy-Copy-Copy-+-Oval-5-Copy" sketch:type="MSLayerGroup" transform="translate(42.000000, 62.000000)">
                <path d="M17.3009709,34.1085937 C26.8560332,34.1085937 34.6019417,26.473125 34.6019417,17.0542969 C34.6019417,7.63546879 26.8560332,0 17.3009709,0 C7.7459085,0 0,7.63546879 0,17.0542969 C0,26.473125 7.7459085,34.1085937 17.3009709,34.1085937 Z M9.90487594,20.4515605 C9.90487594,24.760274 13.6029234,26.9038048 17.3009709,26.9038048 C20.9990183,26.9038048 24.6970658,24.760274 24.6970658,20.4515605 L24.6970658,18.7935685 C24.6970658,18.2522728 24.2551608,17.7975845 23.7202231,17.7975845 L10.9049768,17.7975845 C10.3700391,17.7975845 9.90487594,18.2522728 9.90487594,18.7935685 L9.90487594,20.4515605 Z M5.55004174,13.355056 C5.71626324,13.1418939 5.99502923,12.8583864 6.38476791,12.5780488 C7.04926481,12.1000787 7.81500937,11.8068209 8.66904036,11.8068209 C9.52307134,11.8068209 10.2888159,12.1000787 10.9533128,12.5780488 C11.3430515,12.8583864 11.6218175,13.1418939 11.788039,13.355056 C12.1077234,13.7650186 12.0297315,14.3528195 11.6138392,14.6679459 C11.1979469,14.9830724 10.6016441,14.9061925 10.2819596,14.4962299 C10.2176438,14.4137515 10.0603658,14.2537983 9.83358426,14.0906752 C9.47054741,13.8295442 9.07834302,13.6793413 8.66904036,13.6793413 C8.25973769,13.6793413 7.8675333,13.8295442 7.50449645,14.0906752 C7.27771489,14.2537983 7.12043687,14.4137515 7.05612111,14.4962299 C6.73643664,14.9061925 6.14013383,14.9830724 5.72424149,14.6679459 C5.30834916,14.3528195 5.23035727,13.7650186 5.55004174,13.355056 Z" id="Oval-1-Copy-2" sketch:type="MSShapeGroup"></path>
            </g>
        </g>
    </g>
</svg>