<?xml version="1.0" encoding="UTF-8" standalone="no"?>
<svg width="329px" height="38px" viewBox="0 0 329 38" version="1.1" xmlns="http://www.w3.org/2000/svg" xmlns:xlink="http://www.w3.org/1999/xlink" xmlns:sketch="http://www.bohemiancoding.com/sketch/ns">
    <!-- Generator: Sketch 3.5.1 (25234) - http://www.bohemiancoding.com/sketch -->
    <title>GEILDANKE + Line Copy 4</title>
    <desc>Created with Sketch.</desc>
    <defs></defs>
    <g id="VisualDesign" stroke="none" stroke-width="1" fill="none" fill-rule="evenodd" sketch:type="MSPage">
        <g id="geildanke.com" sketch:type="MSArtboardGroup" transform="translate(-203.000000, -131.000000)">
            <g id="GEILDANKE-+-Line-Copy-4" sketch:type="MSLayerGroup" transform="translate(203.000000, 130.800000)">
                <path d="M32.8259095,29.4653331 L32.8259095,20.0507082 C32.8259095,18.8104582 32.3185345,17.9648332 30.6836595,17.9648332 L18.7321596,17.9648332 C16.3644096,17.9648332 16.0825346,21.6855832 18.7321596,21.6855832 L28.8796595,21.6855832 L28.8796595,29.1834581 C26.3991595,32.5095831 22.0582846,34.3135831 17.8865346,34.2572081 C10.6141596,34.0880831 4.18740969,27.4358331 4.07465969,19.4869582 C4.07465969,12.1018332 9.48665965,6.63345828 15.6879096,5.1677083 C19.9160346,4.0965833 25.1589095,5.39320829 28.3159095,9.05758327 C30.0635345,11.0870833 32.9386595,8.38108327 31.2474095,6.40795829 C28.1467845,2.79995831 22.9039096,1.10870833 17.9992846,1.10870833 C16.9845346,1.10870833 15.9134096,1.16508332 15.0677846,1.27783332 C6.44240968,2.91270831 0.0156597221,10.7488333 0.0156597221,19.3178332 C-0.209840276,29.9727081 8.13365966,38.0343331 17.8301596,38.0907081 C23.2985346,38.1470831 28.8796595,35.7229581 32.2057845,31.3257081 C32.7131595,30.8183331 32.8259095,30.0854581 32.8259095,29.4653331 L32.8259095,29.4653331 Z M48.0784788,21.6292082 L69.2754787,21.6292082 C71.6432286,21.6292082 71.5304786,18.0212082 69.2754787,18.0212082 L48.0784788,18.0212082 L48.0784788,5.33683329 L70.3466037,5.33683329 C72.7143536,5.33683329 72.8271036,1.72883332 70.4029787,1.72883332 L46.6127288,1.72883332 C45.0342288,1.72883332 44.0194788,2.85633331 44.0194788,4.1529583 L44.0194788,35.1028331 C44.0194788,36.4558331 45.0342288,37.5833331 46.6127288,37.5833331 L70.3466037,37.5833331 C73.0526036,37.5833331 72.7143536,33.8625831 70.3466037,33.8625831 L48.0784788,33.8625831 L48.0784788,21.6292082 Z M83.9549022,36.1739581 C83.9549022,38.879958 88.1830271,38.767208 88.1830271,36.1739581 L88.1830271,2.46170832 C88.1830271,-0.300666664 83.9549022,-0.357041664 83.9549022,2.46170832 L83.9549022,36.1739581 Z M126.31445,37.5833331 C129.189575,37.5833331 129.189575,33.8625831 126.31445,33.8625831 L105.230201,33.8625831 L105.230201,3.13820831 C105.230201,0.48858333 101.058451,0.48858333 101.058451,3.13820831 L101.058451,35.4974581 C101.058451,36.8504581 101.678576,37.5833331 103.200701,37.5833331 L126.31445,37.5833331 Z M139.036409,5.33683329 L149.860409,5.33683329 C158.316659,5.33683329 162.544784,12.5528332 162.544784,19.6560832 C162.544784,26.7593331 158.316659,33.9189581 149.860409,33.9189581 L139.036409,33.9189581 L139.036409,5.33683329 Z M149.860409,37.5833331 C161.079034,37.5833331 166.660159,28.6197081 166.660159,19.6560832 C166.660159,10.6924583 161.079034,1.72883332 149.860409,1.72883332 L137.570659,1.72883332 C136.161284,1.72883332 134.977409,2.79995831 134.977409,4.0965833 L134.977409,35.1592081 C134.977409,36.4558331 136.161284,37.5833331 137.570659,37.5833331 L149.860409,37.5833331 Z M192.166714,6.77760011 L202.765214,28.1123331 L207.162464,36.8504581 C208.233589,39.049083 212.405339,37.6397081 210.939589,35.2155831 L193.970714,1.84158332 C193.576089,1.10870833 192.899589,0.770458328 192.166714,0.770458328 C191.433839,0.770458328 190.644589,1.10870833 190.306339,1.84158332 L173.281089,35.3847081 C172.266339,37.6397081 175.987089,39.105458 177.001839,37.0195831 L181.568214,28.1123331 L192.166714,6.77760011 Z M246.086269,23.0385832 L246.650019,31.5512081 L224.945644,2.51808331 C223.536269,0.43220833 220.379269,0.883208327 220.379269,3.70195831 L220.379269,36.0048331 C220.379269,38.823583 224.663769,38.767208 224.663769,36.0048331 L224.663769,16.1044582 L224.212769,8.32470827 L245.297019,36.5685831 C246.480894,38.5417081 250.370769,38.2598331 250.370769,35.4410831 L250.370769,3.08183331 C250.370769,0.601333329 246.086269,0.714083328 246.086269,3.08183331 L246.086269,23.0385832 Z M272.667081,15.5970832 L267.198706,21.1218332 L267.198706,3.19458331 C267.198706,0.657708329 263.083331,0.601333329 263.083331,3.19458331 L263.083331,36.0048331 C263.083331,38.6544581 267.198706,38.5417081 267.198706,36.0048331 L267.198706,25.6882081 L273.174456,20.4453332 L289.072206,37.2450831 C291.158081,39.274583 294.202331,37.0759581 292.060081,34.5954581 L276.049581,17.9084582 L290.988956,4.6603333 C293.018456,2.85633331 290.199706,-0.131541666 288.001081,1.84158332 L272.667081,15.5970832 Z M304.503296,21.6292082 L325.700296,21.6292082 C328.068046,21.6292082 327.955296,18.0212082 325.700296,18.0212082 L304.503296,18.0212082 L304.503296,5.33683329 L326.771421,5.33683329 C329.139171,5.33683329 329.251921,1.72883332 326.827796,1.72883332 L303.037546,1.72883332 C301.459046,1.72883332 300.444296,2.85633331 300.444296,4.1529583 L300.444296,35.1028331 C300.444296,36.4558331 301.459046,37.5833331 303.037546,37.5833331 L326.771421,37.5833331 C329.477421,37.5833331 329.139171,33.8625831 326.771421,33.8625831 L304.503296,33.8625831 L304.503296,21.6292082 Z" id="GEILDANKE" fill="#343434" sketch:type="MSShapeGroup"></path>
                <path d="M187.329426,28.3832463 C187.329426,28.3832463 189.160472,30.7653388 192.027342,30.7653388 C194.894213,30.7653388 196.725259,28.3832463 196.725259,28.3832463" id="Line" stroke="#E50048" stroke-width="2" stroke-linecap="round" sketch:type="MSShapeGroup"></path>
            </g>
        </g>
    </g>
</svg>