# Blender v2.77 (sub 0) OBJ File: ''
# www.blender.org
mtllib cloud1.mtl
o Cloud_008_Mesh.009
v 3.993666 6.704818 3.153141
v 4.028500 6.323936 3.166875
v 4.333940 6.369038 3.119773
v 3.994021 6.783514 2.690591
v 3.450760 7.180041 2.544524
v 3.011503 7.222808 2.478966
v 2.942919 6.722038 1.903849
v 2.884707 6.343562 2.812913
v 1.292920 6.521221 2.732857
v 3.082142 6.385427 2.660543
v 3.332817 6.446392 2.242552
v 4.645324 6.545061 2.701982
v 4.670120 6.657040 3.045140
v 4.707508 6.505901 3.189731
v 3.958713 6.808847 2.990478
v 2.389794 6.167726 2.379396
v 2.597687 6.848627 2.802926
v 3.702178 6.855542 2.923096
v 2.711614 6.776659 2.061694
v 2.988063 6.459946 2.152540
v 3.796648 7.068243 2.812223
v 4.302794 6.558260 3.218162
v 3.322508 6.373424 2.452281
v 1.570044 6.246968 2.717962
v 1.874280 6.585382 2.485566
v 3.554683 7.141926 2.715069
v 4.330927 6.807795 3.131101
v 2.210263 6.735233 3.017927
v 3.371760 6.891132 1.938460
v 3.576217 6.814094 2.016416
v 3.592348 6.282687 2.279907
v 3.998717 6.534627 3.290394
v 1.966186 6.719644 3.082942
v 3.883163 6.765329 2.195924
v 3.539832 7.013850 2.070427
v 4.312452 6.702953 3.241720
v 2.908686 7.085948 2.787744
v 3.056612 6.701042 2.883854
v 4.566639 6.383089 3.028524
v 4.438829 6.729279 2.653864
v 2.828776 6.319583 2.422744
v 4.288821 6.448669 2.367965
v 2.531167 6.143964 2.683817
v 1.378422 6.368722 3.000451
v 3.469877 6.224491 2.689799
v 2.296805 6.368785 2.191767
v 2.016581 6.447539 3.215173
v 1.652107 6.353211 2.447883
v 1.287200 6.628685 3.042505
v 2.402831 6.499939 2.176197
v 2.368142 6.794809 2.685598
v 2.162552 6.590859 3.304496
v 3.064881 7.062018 2.118698
v 2.660709 6.851012 2.316535
v 2.763189 6.630521 2.993106
v 3.249730 6.549757 2.852374
v 3.724232 6.123905 2.494706
v 4.029234 6.164455 2.512248
v 3.721277 7.134015 2.462034
v 3.463484 6.590682 2.042409
v 4.696130 6.488345 2.964031
v 4.672736 6.706442 3.329003
v 3.934787 6.552928 2.336999
v 4.208157 6.221653 2.796988
v 3.769032 6.532512 3.033055
v 3.597283 6.260254 2.818935
v 3.465837 6.512707 2.338532
vn 0.4381 0.3081 -0.8445
vn -0.4984 -0.8393 -0.2171
vn 0.1987 -0.7556 0.6241
vn -0.4941 0.8438 0.2095
vn -0.3379 0.4569 -0.8228
vn -0.0880 -0.9351 0.3433
vn -0.9334 -0.3441 0.1022
vn -0.6951 0.6408 -0.3258
vn 0.0980 0.6953 0.7120
vn 0.1462 0.9112 -0.3850
vn 0.5296 -0.8086 -0.2562
vn -0.6799 0.5427 0.4932
vn 0.2401 -0.6048 -0.7593
vn -0.0458 -0.0812 -0.9956
vn 0.1661 0.7167 0.6773
vn -0.2449 0.7475 -0.6175
vn 0.2483 0.6230 -0.7418
vn 0.0634 0.9455 -0.3195
vn -0.1075 0.2018 0.9735
vn 0.3383 -0.9129 -0.2284
vn -0.2720 -0.2940 0.9163
vn 0.1241 -0.9850 0.1199
vn 0.1372 -0.7544 -0.6419
vn 0.9846 0.1704 -0.0387
vn -0.0164 -0.5723 0.8199
vn -0.2500 0.9087 -0.3342
vn -0.6975 -0.6953 -0.1734
vn 0.2647 -0.2422 -0.9334
vn -0.5941 0.7185 -0.3616
vn 0.2406 -0.6780 0.6946
vn 0.4516 -0.3294 0.8292
vn -0.0182 0.9856 0.1680
vn -0.1355 0.9895 0.0501
vn 0.3177 0.8944 -0.3148
vn -0.1793 0.7288 0.6608
vn -0.2087 0.8029 0.5583
vn 0.0591 0.9871 -0.1490
vn -0.0551 -0.7705 0.6351
vn 0.2021 -0.4739 0.8571
vn 0.2406 -0.4163 0.8768
vn 0.9661 0.2165 -0.1405
vn 0.1150 0.9909 -0.0702
vn 0.4400 -0.3197 -0.8392
vn 0.4447 -0.8653 -0.2314
vn 0.8328 0.5140 -0.2055
vn 0.6229 0.6189 -0.4785
vn 0.1230 -0.9085 -0.3994
vn 0.0480 -0.9441 -0.3261
vn 0.3309 -0.8398 0.4303
vn -0.7938 -0.5965 0.1185
vn -0.0082 -0.2138 0.9769
vn 0.1831 -0.2710 -0.9450
vn 0.6077 -0.4253 0.6706
vn 0.4003 -0.3597 0.8428
vn -0.2534 0.9659 0.0528
vn -0.4544 0.2665 -0.8500
vn -0.3502 0.5580 -0.7524
vn -0.3857 0.4954 -0.7783
vn -0.2875 -0.2504 0.9245
vn -0.1417 0.7961 0.5883
vn -0.1075 -0.9938 -0.0277
vn -0.2578 -0.8699 -0.4205
vn -0.0459 -0.8859 0.4616
vn 0.4965 -0.8679 -0.0178
vn -0.5342 -0.6285 -0.5654
vn -0.1067 0.2021 0.9735
vn -0.0008 0.7958 0.6056
vn -0.1325 0.5038 0.8536
vn -0.3110 0.2480 0.9175
vn -0.1960 0.2794 0.9400
vn 0.8309 0.5542 0.0510
vn -0.3077 -0.2405 0.9206
vn -0.0655 0.9966 0.0503
vn -0.2399 0.4670 -0.8511
vn -0.5594 0.7590 -0.3332
vn 0.0959 -0.9053 -0.4138
vn -0.2382 0.9162 -0.3224
vn 0.5517 0.4320 -0.7135
vn 0.6620 0.7490 0.0265
vn 0.0167 -0.2321 -0.9726
vn 0.0557 0.2753 -0.9597
vn 0.3836 0.4205 -0.8222
vn -0.2659 -0.1376 0.9541
vn 0.0216 -0.9609 0.2762
vn -0.1356 -0.9311 0.3385
vn 0.1909 -0.9189 0.3452
vn 0.6437 -0.7198 -0.2599
vn 0.5166 -0.7931 -0.3225
vn 0.5320 -0.8004 -0.2764
vn 0.3660 0.9163 -0.1628
vn 0.3571 -0.3840 0.8515
vn -0.2318 -0.1412 0.9625
vn -0.1677 0.7294 0.6632
vn 0.6388 -0.7689 0.0276
vn 0.9745 0.2147 -0.0658
vn -0.0556 0.9667 0.2499
vn 0.0271 0.9105 0.4126
vn 0.9712 0.0893 -0.2209
vn 0.0440 -0.5453 -0.8371
vn 0.5559 -0.8027 -0.2158
vn 0.0969 -0.9809 0.1684
vn -0.5888 -0.2365 0.7729
vn -0.3050 -0.4624 0.8326
vn -0.3181 -0.5646 0.7616
vn -0.0150 0.4674 0.8839
vn -0.5709 0.7150 -0.4037
vn 0.2773 -0.5838 -0.7630
vn 0.0203 -0.6863 -0.7270
vn 0.1067 -0.8383 -0.5347
vn 0.2274 -0.9734 0.0272
vn -0.6430 -0.6258 -0.4415
vn -0.2414 -0.7194 -0.6513
vn -0.4623 0.6448 0.6087
vn -0.3422 0.9307 -0.1295
vn 0.1848 0.8650 0.4665
vn 0.0653 0.8868 0.4576
vn -0.0603 -0.3235 -0.9443
vn -0.4612 -0.6263 0.6285
vn -0.0970 -0.9305 0.3533
vn -0.4768 -0.8210 -0.3142
vn -0.4749 -0.8237 -0.3099
vn 0.5162 0.3099 -0.7984
vn 0.0045 0.7295 -0.6840
vn 0.1961 0.9756 0.0986
vn 0.2412 0.9619 0.1287
vn 0.8073 0.5867 -0.0635
vn 0.0559 0.8320 -0.5519
vn 0.1891 -0.9190 0.3460
vn -0.6663 -0.4450 0.5984
usemtl cloud
s off
f 29//1 35//1 30//1
f 23//2 57//2 45//2
f 8//3 47//3 43//3
f 6//4 51//4 37//4
f 25//5 46//5 48//5
f 44//6 24//6 43//6
f 49//7 9//7 44//7
f 54//8 19//8 50//8
f 38//9 17//9 55//9
f 6//10 5//10 53//10
f 61//11 39//11 64//11
f 1//12 15//12 65//12
f 58//13 31//13 42//13
f 50//14 20//14 46//14
f 17//15 28//15 55//15
f 7//16 19//16 29//16
f 42//17 63//17 40//17
f 53//18 59//18 35//18
f 18//19 37//19 38//19
f 41//20 43//20 16//20
f 47//21 52//21 44//21
f 64//22 57//22 58//22
f 57//23 31//23 58//23
f 13//24 62//24 61//24
f 14//25 62//25 22//25
f 25//26 49//26 51//26
f 9//27 24//27 44//27
f 60//28 29//28 30//28
f 54//29 51//29 6//29
f 47//30 8//30 52//30
f 8//31 55//31 52//31
f 51//32 33//32 28//32
f 51//33 49//33 33//33
f 27//34 13//34 12//34
f 27//35 1//35 36//35
f 27//36 15//36 1//36
f 15//37 27//37 40//37
f 14//38 22//38 39//38
f 2//39 3//39 32//39
f 3//40 22//40 32//40
f 61//41 12//41 13//41
f 15//42 40//42 4//42
f 30//43 34//43 60//43
f 34//44 67//44 60//44
f 34//45 59//45 4//45
f 34//46 35//46 59//46
f 41//47 20//47 23//47
f 20//48 11//48 23//48
f 23//49 56//49 10//49
f 23//50 45//50 56//50
f 18//51 38//51 56//51
f 60//52 7//52 29//52
f 38//53 8//53 10//53
f 38//54 55//54 8//54
f 51//55 28//55 17//55
f 46//56 25//56 50//56
f 25//57 54//57 50//57
f 48//58 9//58 25//58
f 44//59 52//59 49//59
f 52//60 33//60 49//60
f 43//61 24//61 16//61
f 24//62 48//62 16//62
f 43//63 47//63 44//63
f 41//64 8//64 43//64
f 7//65 20//65 19//65
f 37//66 17//66 38//66
f 26//67 37//67 21//67
f 21//68 18//68 15//68
f 65//69 18//69 56//69
f 65//70 15//70 18//70
f 21//71 15//71 4//71
f 65//72 22//72 1//72
f 65//73 32//73 22//73
f 29//74 19//74 53//74
f 54//75 53//75 19//75
f 46//76 20//76 41//76
f 25//77 9//77 49//77
f 40//78 12//78 42//78
f 40//79 27//79 12//79
f 42//80 67//80 63//80
f 42//81 31//81 67//81
f 31//82 11//82 67//82
f 22//83 36//83 1//83
f 2//84 57//84 64//84
f 2//85 66//85 57//85
f 39//86 3//86 64//86
f 42//87 64//87 58//87
f 42//88 12//88 64//88
f 12//89 61//89 64//89
f 13//90 27//90 62//90
f 22//91 3//91 39//91
f 22//92 62//92 36//92
f 36//93 62//93 27//93
f 61//94 14//94 39//94
f 61//95 62//95 14//95
f 5//96 37//96 26//96
f 6//97 37//97 5//97
f 53//18 5//18 59//18
f 34//98 4//98 63//98
f 34//99 63//99 67//99
f 11//100 60//100 67//100
f 23//101 10//101 41//101
f 2//102 65//102 66//102
f 65//103 56//103 66//103
f 38//104 10//104 56//104
f 21//105 37//105 18//105
f 54//106 6//106 53//106
f 16//107 46//107 41//107
f 20//108 7//108 60//108
f 20//109 60//109 11//109
f 10//110 8//110 41//110
f 24//111 9//111 48//111
f 48//112 46//112 16//112
f 37//113 51//113 17//113
f 25//114 51//114 54//114
f 28//115 52//115 55//115
f 28//116 33//116 52//116
f 50//117 19//117 20//117
f 45//118 66//118 56//118
f 45//119 57//119 66//119
f 57//120 23//120 31//120
f 23//121 11//121 31//121
f 30//122 35//122 34//122
f 29//123 53//123 35//123
f 26//124 59//124 5//124
f 26//125 21//125 59//125
f 21//126 4//126 59//126
f 40//127 63//127 4//127
f 2//128 64//128 3//128
f 2//129 32//129 65//129
o Cloud_009_Mesh.010
v -1.021338 7.606465 -3.147534
v -1.136512 7.388468 -2.999598
v -1.455055 7.764677 -3.453524
v -1.572469 7.582539 -2.794287
v -2.199820 7.415190 -2.685999
v -2.101561 7.743880 -2.910737
v -2.026287 7.835534 -3.344788
v -2.527913 8.118652 -3.044513
v -2.855741 8.174915 -2.654593
v -2.730196 8.296104 -3.142330
v -2.789029 7.939258 -2.444598
v -2.856899 7.542099 -2.336265
v -2.966405 7.418303 -2.593547
v -3.040707 7.523039 -3.421842
v -2.922707 7.862073 -3.856835
v -2.825053 8.261600 -3.719077
v -3.027993 8.389346 -3.478000
v -3.164018 8.506687 -3.276463
v -3.203288 8.664732 -2.799736
v -3.264203 8.475400 -2.532255
v -2.963840 8.419021 -2.979333
v -3.193305 8.078380 -2.461681
v -3.258992 7.677585 -2.328979
v -3.436457 7.422620 -2.595214
v -3.617561 7.318134 -3.023556
v -4.027959 7.304675 -2.522472
v -3.672446 7.284483 -2.557220
v -3.693721 7.389993 -2.143847
v -3.499578 7.881366 -2.350639
v -3.755528 8.307934 -2.382651
v -3.721982 8.800880 -2.588674
v -3.488707 8.855206 -2.827322
v -3.384387 8.770198 -3.142274
v -3.978348 8.723527 -3.282989
v -3.799983 8.335259 -3.737078
v -3.518133 8.150124 -3.858680
v -3.790163 8.233805 -4.027664
v -3.558404 7.797455 -3.821898
v -3.438622 7.536479 -3.469961
v -3.980894 7.514730 -3.641517
v -3.705364 7.794306 -4.067938
v -4.101765 7.854167 -3.908672
v -4.417167 7.685159 -3.441131
v -3.941583 8.467761 -3.494727
v -3.968372 7.969735 -4.131610
v -4.144978 7.415183 -3.048533
v -4.402362 7.512101 -2.875102
v -4.293319 7.630634 -2.523926
v -4.228650 8.013165 -2.522679
v -3.943627 7.819366 -2.259019
v -3.816034 8.039901 -2.343538
v -3.912909 8.581759 -2.473266
v -3.769660 8.895174 -3.068800
v -4.294250 8.438548 -3.215658
v -4.172083 8.194413 -3.624581
v -4.683062 8.288347 -3.561581
v -4.710900 8.472301 -3.210799
v -4.409076 7.892222 -3.644923
v -4.959283 8.274867 -3.225362
v -4.931119 8.127633 -2.686122
v -4.991400 7.810643 -2.772228
v -4.896581 7.380844 -2.913997
v -4.679552 7.441243 -3.285719
v -4.646251 7.941336 -2.384187
v -4.219348 8.554420 -2.912917
v -4.286288 8.298711 -2.625284
v -4.828174 7.780595 -2.582696
v -4.887989 7.556600 -3.333323
v -4.999813 7.854473 -3.397311
v -3.890445 7.598126 -2.091292
v -3.258972 7.870156 -3.801534
v -3.286099 8.178658 -3.739224
v -3.014935 7.375889 -2.986939
v -3.431784 8.590434 -3.425489
v -2.525203 7.851175 -3.629431
v -2.624614 7.536182 -3.465688
v -1.980621 7.520285 -3.466697
v -2.529166 7.333129 -2.890154
v -2.563498 7.550633 -2.623134
v -1.533189 7.490791 -3.470580
vn 0.5088 0.2829 0.8130
vn 0.2537 -0.3738 0.8921
vn 0.2345 0.9421 0.2396
vn 0.5272 0.7830 0.3302
vn 0.6960 0.0758 0.7141
vn -0.0181 0.3299 -0.9439
vn 0.4743 0.8615 -0.1815
vn 0.1574 -0.9105 -0.3822
vn -0.1708 -0.9712 -0.1660
vn -0.0310 -0.9689 0.2457
vn 0.1621 0.2812 0.9459
vn 0.1793 0.1023 0.9785
vn 0.4258 0.6985 0.5752
vn -0.4046 0.2288 0.8854
vn -0.0473 0.6329 -0.7728
vn 0.5586 0.1819 -0.8092
vn 0.8497 -0.1498 -0.5056
vn 0.2236 -0.7450 -0.6285
vn -0.7871 0.5951 -0.1624
vn -0.6913 0.3736 -0.6185
vn -0.4174 0.8535 -0.3121
vn -0.4349 0.6585 -0.6142
vn -0.4550 -0.8491 -0.2684
vn -0.4087 -0.9072 -0.0996
vn -0.7071 -0.5738 0.4132
vn -0.6359 0.1050 0.7646
vn -0.5645 0.7786 0.2740
vn -0.0828 0.6133 0.7855
vn -0.6786 0.7262 -0.1101
vn -0.5703 0.4736 -0.6711
vn -0.0955 0.1412 -0.9854
vn -0.6129 0.7535 0.2378
vn 0.5740 -0.7787 -0.2531
vn -0.2881 -0.8766 0.3854
vn 0.2871 0.4005 0.8701
vn -0.6509 0.6362 0.4141
vn -0.2685 0.8530 0.4476
vn 0.3232 -0.0577 0.9446
vn -0.9953 0.0672 0.0703
vn 0.2572 -0.9663 -0.0069
vn -0.7598 -0.0319 0.6493
vn -0.7396 0.3147 -0.5950
vn 0.1050 -0.9765 -0.1883
vn -0.6771 0.3343 0.6556
vn 0.0949 -0.1140 -0.9889
vn 0.2265 0.7517 -0.6195
vn 0.8647 -0.1384 0.4828
vn 0.5189 -0.8215 0.2364
vn -0.1719 -0.9847 0.0294
vn -0.4625 -0.4658 0.7544
vn 0.1003 0.2458 0.9641
vn 0.2054 0.6829 0.7011
vn 0.4092 0.6982 0.5874
vn 0.7128 0.6812 -0.1671
vn 0.4454 0.8946 -0.0361
vn 0.4080 0.8814 -0.2378
vn 0.4173 0.9026 -0.1054
vn -0.0127 -0.4580 -0.8888
vn -0.0238 -0.9440 -0.3291
vn -0.0038 -0.9473 -0.3203
vn 0.5842 0.4596 0.6689
vn 0.0758 0.7382 -0.6703
vn -0.0045 0.0634 -0.9980
vn -0.0284 -0.7458 -0.6655
vn 0.2868 -0.7918 -0.5393
vn -0.9620 -0.2672 -0.0563
vn 0.0068 -0.9471 -0.3209
vn 0.6539 0.5981 0.4634
vn 0.6112 0.7169 0.3354
vn 0.3171 0.4689 0.8244
vn 0.2722 -0.9608 -0.0529
vn 0.5048 -0.6512 -0.5666
vn 0.1721 0.9412 0.2907
vn -0.0663 -0.9852 -0.1582
vn -0.1349 0.3403 -0.9306
vn 0.4261 -0.9036 0.0449
vn 0.1617 0.8207 -0.5480
vn 0.8255 -0.2812 -0.4894
vn -0.2168 0.9607 -0.1734
vn -0.7359 -0.3529 0.5778
vn -0.2483 -0.6745 -0.6952
vn -0.0680 -0.4831 -0.8729
vn -0.9833 0.1800 0.0259
vn 0.1429 0.9472 0.2871
vn 0.5476 -0.1045 -0.8302
vn -0.0088 0.5662 0.8242
vn 0.5889 0.7640 0.2635
vn 0.3175 -0.9002 0.2980
vn -0.1553 0.1824 -0.9709
vn 0.7787 0.4147 0.4709
vn 0.6216 0.7114 0.3279
vn 0.4318 0.2320 0.8716
vn -0.0091 -0.7192 0.6948
vn 0.5048 -0.8632 -0.0029
vn 0.2191 0.2086 0.9531
vn 0.1460 0.3854 0.9111
vn 0.1430 0.3608 0.9216
vn 0.0212 0.7700 -0.6377
vn -0.1289 0.8365 -0.5326
vn 0.4383 0.8531 -0.2830
vn 0.1792 -0.8718 -0.4558
vn -0.3653 -0.6526 -0.6639
vn -0.5132 -0.6362 -0.5761
vn -0.5781 -0.5608 -0.5927
vn -0.4817 -0.8415 -0.2447
vn -0.3699 0.5113 0.7757
vn -0.6117 0.7902 -0.0373
vn -0.0278 0.4480 -0.8936
vn 0.0664 0.8858 -0.4593
vn -0.5488 0.7216 -0.4220
vn -0.3863 -0.8478 -0.3633
vn -0.1474 -0.2603 -0.9542
vn -0.2559 -0.6231 0.7391
vn -0.4444 0.7184 0.5352
vn -0.7315 -0.0139 0.6816
vn 0.1119 -0.6454 0.7556
vn -0.0284 0.9803 0.1954
vn -0.5074 -0.6285 0.5895
vn 0.1578 0.2725 0.9491
vn -0.6436 -0.5215 0.5602
vn -0.1675 -0.9637 -0.2081
vn -0.2668 -0.8192 0.5077
vn 0.1580 0.2869 0.9448
vn 0.6254 0.7546 -0.1987
vn 0.5052 0.6879 -0.5212
vn 0.4926 0.1736 -0.8528
vn 0.2563 0.8795 -0.4010
vn 0.4679 0.3769 -0.7994
vn -0.0804 -0.4397 -0.8946
vn 0.0645 0.3041 0.9504
vn -0.0697 -0.9859 -0.1523
vn 0.6930 0.7039 -0.1561
vn 0.8079 0.5374 -0.2420
vn -0.1833 -0.7736 0.6066
vn 0.4200 0.8992 -0.1229
vn -0.0098 -0.9705 0.2409
vn 0.1909 0.6367 -0.7471
vn 0.4260 0.2150 -0.8788
vn 0.3250 0.1483 -0.9340
vn -0.0643 -0.9948 -0.0793
vn -0.5403 0.4707 -0.6975
vn -0.3463 -0.7321 -0.5867
vn -0.4159 0.0613 0.9074
vn 0.0707 0.9256 -0.3718
vn -0.3818 -0.0702 -0.9216
usemtl cloud
s off
f 69//130 68//130 71//130
f 69//131 71//131 72//131
f 74//132 73//132 71//132
f 77//133 76//133 75//133
f 78//134 79//134 146//134
f 83//135 82//135 139//135
f 85//136 77//136 84//136
f 107//137 106//137 92//137
f 113//138 92//138 93//138
f 93//139 94//139 95//139
f 96//140 89//140 118//140
f 118//141 89//141 97//141
f 87//142 99//142 98//142
f 118//143 97//143 133//143 116//143
f 101//144 141//144 111//144
f 103//145 108//145 104//145
f 103//146 105//146 108//146
f 138//147 106//147 105//147
f 109//148 104//148 112//148
f 104//149 109//149 122//149
f 122//150 102//150 104//150
f 111//151 102//151 122//151
f 107//152 113//152 110//152
f 113//153 93//153 114//153
f 114//154 93//154 115//154
f 117//155 116//155 115//155
f 98//156 120//156 132//156 119//156
f 131//157 116//157 133//157 127//157
f 132//158 101//158 121//158
f 101//159 111//159 121//159
f 123//160 122//160 125//160
f 126//161 127//161 124//161
f 130//162 110//162 114//162
f 115//163 134//163 114//163
f 95//164 96//164 117//164 137//164
f 119//165 132//165 133//165
f 124//166 127//166 133//166
f 116//167 131//167 115//167
f 127//168 126//168 136//168
f 129//169 130//169 114//169
f 127//170 128//170 134//170
f 126//171 123//171 136//171
f 92//172 106//172 140//172 80//172
f 115//173 137//173 117//173
f 103//174 138//174 105//174
f 102//175 139//175 103//175
f 96//176 95//176 91//176
f 91//177 95//177 94//177
f 143//178 145//178 146//178 80//178
f 90//179 96//179 91//179
f 90//180 79//180 78//180
f 89//181 78//181 76//181
f 86//182 99//182 87//182
f 100//183 86//183 85//183
f 77//184 85//184 88//184
f 85//185 84//185 141//185
f 120//186 99//186 86//186 100//186
f 142//187 144//187 143//187
f 143//188 144//188 145//188
f 140//189 81//189 143//189
f 78//190 146//190 73//190 75//190
f 141//191 84//191 83//191 139//191
f 144//192 70//192 147//192
f 138//193 82//193 81//193 106//193
f 82//194 142//194 81//194
f 128//195 136//195 135//195 129//195
f 106//196 81//196 140//196
f 75//197 76//197 78//197
f 77//198 88//198 76//198
f 72//199 73//199 146//199
f 145//200 144//200 72//200
f 147//201 68//201 69//201
f 71//202 70//202 74//202
f 147//203 69//203 144//203
f 70//204 144//204 74//204
f 140//205 143//205 80//205
f 120//206 100//206 141//206
f 106//207 108//207 105//207
f 121//208 111//208 123//208
f 128//209 129//209 134//209
f 125//210 110//210 136//210
f 110//211 130//211 135//211
f 128//212 127//212 136//212
f 71//213 68//213 70//213
f 147//214 70//214 68//214
f 72//215 71//215 73//215
f 73//216 74//216 75//216
f 80//217 146//217 79//217
f 139//218 82//218 138//218
f 88//219 86//219 87//219
f 76//220 88//220 87//220
f 76//221 87//221 89//221
f 91//222 80//222 90//222
f 94//223 92//223 91//223
f 89//224 87//224 97//224
f 97//225 87//225 119//225
f 119//226 87//226 98//226
f 101//227 120//227 141//227
f 102//228 111//228 141//228
f 104//229 102//229 103//229
f 107//230 108//230 106//230
f 109//231 108//231 107//231
f 109//232 107//232 110//232
f 125//233 109//233 110//233
f 110//234 113//234 114//234
f 117//235 118//235 116//235
f 120//236 101//236 132//236
f 123//237 111//237 122//237
f 124//238 121//238 123//238
f 123//239 126//239 124//239
f 130//240 129//240 135//240
f 135//241 136//241 110//241
f 134//242 115//242 131//242
f 133//243 132//243 124//243
f 134//244 131//244 127//244
f 129//245 114//245 134//245
f 99//246 120//246 98//246
f 95//247 137//247 93//247
f 96//248 118//248 117//248
f 137//249 115//249 93//249
f 113//250 107//250 92//250
f 80//251 79//251 90//251
f 90//252 89//252 96//252
f 88//253 85//253 86//253
f 100//254 85//254 141//254
f 83//255 142//255 82//255
f 75//256 74//256 142//256
f 142//257 74//257 144//257
f 81//258 142//258 143//258
f 90//259 78//259 89//259
f 72//260 144//260 69//260
f 75//261 83//261 77//261
f 142//262 83//262 75//262
f 72//263 146//263 145//263
f 84//264 77//264 83//264
f 92//265 80//265 91//265
f 102//266 141//266 139//266
f 138//267 103//267 139//267
f 112//268 104//268 108//268
f 93//269 92//269 94//269
f 125//270 122//270 109//270
f 109//271 112//271 108//271
f 133//272 97//272 119//272
f 124//273 132//273 121//273
f 123//274 125//274 136//274
