# Blender v2.76 (sub 0) OBJ File: 'stones2.blend'
# www.blender.org
mtllib stones2.mtl
o stones2_Icosphere.001
v -0.480132 0.164940 0.469194
v -0.407134 0.090028 0.720727
v -0.832048 0.041424 0.344938
v -0.716155 0.028944 1.450668
v -1.039600 -0.027874 1.634655
v -1.366543 0.032561 1.188615
v -1.281885 0.233741 0.587257
v -1.293133 0.216876 1.054175
v -0.724195 0.265015 0.614108
v -0.940489 0.282749 1.344017
v -0.760341 0.174006 1.487085
v -1.025255 0.207525 1.626253
v -1.316069 0.077607 0.936852
v -1.076978 0.037527 1.689683
v -0.942822 0.172588 0.329657
v -0.648225 0.049328 0.593699
v -0.922419 0.107674 1.654188
v -1.302092 0.015902 0.585776
v -0.726589 -0.038341 0.556753
v -1.066575 -0.056136 0.579645
v -1.278986 -0.067622 1.053881
v -0.795620 -0.065859 0.712852
v -0.897502 -0.058167 1.507681
v -0.923095 0.086113 1.440438
v 0.733523 -0.056486 0.950484
v -0.092395 0.047157 1.495089
v -0.203348 -0.056486 -0.540150
v -0.385294 -0.056486 0.372717
v -0.771480 0.055081 -1.173404
v 0.288788 0.058892 -1.143644
v 1.365091 0.249990 0.640809
v 0.843059 0.406957 -0.797008
v -0.600695 0.441628 1.839532
v 0.661141 0.441628 1.520610
v -1.110420 0.449255 1.388568
v -1.081661 0.463615 -1.161184
v -0.167743 0.441628 -1.599192
v 0.802121 0.836099 1.011649
v -0.910109 0.817421 1.402336
v -0.821997 0.876698 -1.055177
v 0.996322 0.788675 0.146038
v -0.173716 0.982522 1.320669
v -0.861108 0.984884 -0.040926
v 0.280499 0.711102 -0.996050
v 0.012832 0.898713 -0.437947
v 0.190578 1.076556 -0.238850
v -0.852656 0.856071 -0.200055
v -1.028672 0.673116 -0.310820
v -1.064042 0.421671 -0.872121
v 0.323756 0.310115 1.810504
v 0.234868 0.195541 1.430200
v 0.708694 0.121204 1.980468
v 0.539285 0.102117 0.297041
v 0.881138 0.102824 -0.002500
v 1.251998 0.107649 0.660693
v 1.200337 0.415343 1.506826
v 1.219195 0.389550 0.666346
v 0.581466 0.463176 1.575182
v 0.785767 0.490299 0.447330
v 0.585534 0.323981 0.238877
v 0.865986 0.375248 0.011155
v 1.477566 0.118079 1.157282
v 0.912093 0.252763 -0.052974
v 0.828908 0.321814 1.997544
v 0.500260 0.133293 1.610683
v 0.753837 0.222530 -0.025712
v 1.206552 0.082170 1.585726
v 0.586348 -0.000791 1.662708
v 0.952512 -0.028009 1.608447
v 1.162860 -0.045577 0.871584
v 0.654629 -0.042880 1.420213
v 0.732801 -0.031115 0.199622
vt 0.956697 0.287250
vt 0.894933 0.371011
vt 0.844249 0.312928
vt 0.119262 0.874917
vt 0.066057 0.825779
vt 0.114223 0.809936
vt 0.192116 0.868837
vt 0.181326 0.925166
vt 0.142861 0.895716
vt 0.951839 0.719771
vt 0.913278 0.717796
vt 0.931391 0.690750
vt 0.128706 0.975921
vt 0.086722 0.912921
vt 0.876235 0.696629
vt 0.915667 0.545406
vt 0.946851 0.585989
vt 0.896201 0.615789
vt 0.169480 0.978666
vt 0.951839 0.830824
vt 0.929328 0.849597
vt 0.897462 0.742993
vt 0.051602 0.790632
vt 0.015114 0.808997
vt 0.025637 0.728303
vt 0.856179 0.813498
vt 0.919775 0.873244
vt 0.856627 0.741130
vt 0.898343 0.718855
vt 0.203984 0.947695
vt 0.014848 0.874917
vt 0.043901 0.874382
vt 0.049075 0.720887
vt 0.959360 0.655916
vt 0.926493 0.664807
vt 0.775281 0.355287
vt 0.799998 0.283876
vt 0.823608 0.324387
vt 0.823608 0.418891
vt 0.972575 0.625443
vt 0.972575 0.538154
vt 0.300986 0.820793
vt 0.300986 0.918652
vt 0.250791 0.818088
vt 0.107186 0.730275
vt 0.953488 0.492528
vt 0.208017 0.841500
vt 0.229870 0.939564
vt 0.275131 0.955306
vt 0.893516 0.270261
vt 0.977861 0.248123
vt 0.141326 0.863893
vt 0.842728 0.365323
vt 0.649635 0.440625
vt 0.643353 0.554397
vt 0.526523 0.451703
vt 0.649635 0.683663
vt 0.524222 0.753656
vt 0.490246 0.628228
vt 0.319965 0.365046
vt 0.204024 0.425019
vt 0.190395 0.362714
vt 0.172868 0.008567
vt 0.189211 0.048175
vt 0.034369 0.028602
vt 0.688857 0.679401
vt 0.652263 0.532816
vt 0.789585 0.542544
vt 0.641061 0.281084
vt 0.521114 0.286763
vt 0.641450 0.173864
vt 0.520465 0.779016
vt 0.627543 0.834832
vt 0.510871 0.916656
vt 0.045380 0.147177
vt 0.066014 0.369371
vt 0.001314 0.170990
vt 0.845738 0.873015
vt 0.651222 0.929920
vt 0.644451 0.815931
vt 0.659283 0.691726
vt 0.845738 0.720765
vt 0.352528 0.021851
vt 0.401354 0.056790
vt 0.328931 0.170901
vt 0.530735 0.105464
vt 0.686400 0.391136
vt 0.826362 0.460318
vt 0.105357 0.129467
vt 0.529202 0.391136
vt 0.398550 0.392346
vt 0.322593 0.481871
vt 0.343616 0.629764
vt 0.322593 0.346786
vt 0.335934 0.195720
vt 0.456202 0.388472
vt 0.655548 0.060762
vt 0.506332 0.001332
vt 0.826362 0.688086
vt 0.319965 0.001332
vt 0.235475 0.709285
vt 0.313227 0.793125
vt 0.168505 0.796968
vt 0.253456 0.581161
vt 0.313227 0.429091
vt 0.001314 0.557587
vt 0.096833 0.509345
vt 0.201226 0.427683
vt 0.655548 0.339159
vt 0.644574 0.907875
vt 0.956041 0.019887
vt 0.925600 0.176329
vt 0.855319 0.140197
vt 0.494721 0.853858
vt 0.391524 0.831200
vt 0.453219 0.744702
vt 0.519445 0.958783
vt 0.434420 0.963980
vt 0.479389 0.908086
vt 0.749003 0.203704
vt 0.774743 0.229266
vt 0.709843 0.255958
vt 0.820738 0.974571
vt 0.774118 0.919885
vt 0.895211 0.891899
vt 0.781656 0.280838
vt 0.713032 0.037467
vt 0.751747 0.001332
vt 0.789208 0.046812
vt 0.370312 0.961873
vt 0.378456 0.910742
vt 0.839019 0.034115
vt 0.839019 0.203862
vt 0.361652 0.768975
vt 0.324546 0.808229
vt 0.349705 0.672847
vt 0.842624 0.511190
vt 0.876999 0.615552
vt 0.845667 0.636847
vt 0.927950 0.453259
vt 0.894090 0.418184
vt 0.943402 0.422275
vt 0.933062 0.374279
vt 0.855534 0.412098
vt 0.381302 0.884587
vt 0.394353 0.653909
vt 0.069773 0.448818
vt 0.082932 0.404831
vt 0.134834 0.381482
vt 0.130678 0.436121
vt 0.822684 0.237308
vt 0.991781 0.862167
vt 0.955444 0.755991
vt 0.991781 0.713211
vt 0.929077 0.901107
vt 0.964035 0.839440
vt 0.964035 0.968268
vt 0.046055 0.444082
vt 0.027670 0.483221
vt 0.076760 0.494357
vt 0.437832 0.650851
vt 0.672445 0.361170
vt 0.717509 0.283681
vt 0.746853 0.361170
vt 0.658176 0.065575
vt 0.661575 0.222464
vt 0.494721 0.697158
vt 0.956041 0.227346
vt 0.882798 0.226348
vn -0.054000 0.997700 -0.040200
vn -0.984100 0.176700 -0.017300
vn 0.288200 0.132900 -0.948300
vn 0.335300 -0.871900 -0.357000
vn -0.596900 0.060800 -0.800000
vn 0.402200 -0.875000 -0.269400
vn 0.709400 0.039400 0.703700
vn -0.252800 -0.777500 -0.575800
vn 0.448900 -0.891100 0.066200
vn -0.516800 -0.812900 0.268600
vn -0.109700 -0.987500 0.112800
vn 0.011500 -0.999900 0.011200
vn -0.019600 -0.999300 -0.033000
vn 0.041200 -0.986900 -0.155800
vn 0.024300 -0.931500 -0.362900
vn -0.292700 -0.943700 -0.153900
vn -0.794900 -0.602800 -0.068300
vn -0.634500 -0.676800 0.373400
vn 0.499200 -0.530300 0.685200
vn 0.477400 -0.540400 0.692900
vn 0.369900 -0.925700 0.079100
vn 0.349600 -0.851500 -0.390700
vn 0.693200 -0.697000 0.183700
vn 0.731800 -0.432000 -0.527100
vn -0.393800 -0.427400 -0.813800
vn -0.709400 0.577400 0.404200
vn -0.905600 0.410200 -0.108200
vn 0.389600 -0.452400 0.802300
vn 0.065900 0.331200 0.941300
vn 0.424500 0.621400 0.658500
vn 0.901300 0.175100 0.396200
vn -0.950800 0.275600 -0.141300
vn -0.827900 0.399000 0.394200
vn 0.285300 0.901300 0.325900
vn 0.447500 0.887400 0.111000
vn 0.451300 0.885400 0.111000
vn 0.443500 0.886000 0.135200
vn -0.305600 0.938900 0.158500
vn -0.207600 0.977800 0.030300
vn 0.135200 0.907100 -0.398700
vn -0.040300 0.959000 -0.280600
vn -0.994100 0.092600 -0.055900
vn -0.079300 -0.711700 0.698000
vn 0.567800 -0.582800 0.581300
vn -0.646800 -0.229800 0.727200
vn -0.854100 0.504700 0.125300
vn -0.419000 -0.292400 -0.859600
vn 0.230400 0.950400 -0.209000
vn 0.050700 0.993300 -0.104000
vn -0.999100 -0.020700 -0.036300
vn -0.206300 0.972700 0.105900
vn 0.178800 0.978700 0.100800
vn -0.176400 0.807100 -0.563500
vn 0.540900 0.745400 -0.389600
vn 0.154900 0.854000 -0.496700
vn -0.378100 0.445900 -0.811300
vn -0.981900 0.188200 -0.022400
vn -0.717900 0.696100 -0.008900
vn -0.626400 0.314100 0.713400
vn -0.086600 0.724400 0.683900
vn 0.307400 0.709000 0.634700
vn 0.756500 0.398600 0.518500
vn 0.755800 0.640900 0.134400
vn 0.528000 0.556900 -0.641200
vn 0.605500 -0.195900 -0.771400
vn 0.021100 -0.755000 -0.655400
vn -0.796400 -0.603500 -0.039000
vn 0.197300 0.593100 0.780600
vn 0.216400 -0.468900 0.856300
vn 0.337900 -0.687100 0.643200
vn 0.892700 0.348300 -0.286100
vn 0.636700 -0.706800 -0.308300
vn 0.008600 -0.983400 -0.181000
vn -0.158600 -0.986800 -0.031600
vn -0.263400 -0.964700 -0.003800
vn 0.205700 -0.978400 -0.019300
vn 0.339800 -0.915900 -0.213500
vn 0.000000 -1.000000 -0.000000
vn -0.053500 -0.993000 0.105700
vn -0.054700 -0.992900 0.106000
vn 0.504700 0.369200 -0.780400
vn -0.079000 0.996000 0.041600
vn 0.327200 0.944700 0.021600
vn 0.156900 0.956400 -0.246300
vn -0.887900 -0.459800 -0.012600
vn -0.896200 0.423200 -0.133100
vn -0.878500 0.477200 0.020600
vn 0.081200 0.995900 0.038700
vn 0.728600 0.685000 -0.004700
vn -0.347000 0.128800 0.929000
vn -0.433600 -0.829800 0.351300
vn 0.794500 0.027600 0.606600
vn -0.516500 -0.814400 0.264500
vn -0.837800 0.031700 -0.545100
vn 0.374000 -0.749800 0.545800
vn -0.581800 -0.812100 -0.045100
vn 0.568700 -0.760900 -0.312500
vn 0.406100 -0.870300 -0.278700
vn -0.016900 -0.999800 -0.010700
vn 0.029500 -0.999000 0.032200
vn -0.050000 -0.986300 0.157100
vn -0.015400 -0.931500 0.363500
vn 0.404400 -0.904200 0.137000
vn 0.881600 -0.471100 0.030300
vn 0.826300 -0.325300 -0.459700
vn -0.421100 -0.582600 -0.695100
vn -0.635600 -0.482600 -0.602600
vn -0.494100 -0.867300 -0.061200
vn -0.449400 -0.807300 0.382400
vn -0.810900 -0.570800 -0.129300
vn -0.820300 -0.351700 0.450900
vn 0.552100 -0.393400 0.735200
vn 0.783400 0.334800 0.523600
vn 0.096000 -0.995100 -0.022700
vn -0.106600 -0.297400 -0.948800
vn -0.227400 0.383100 -0.895300
vn -0.579300 0.566800 -0.585800
vn -0.955000 0.129000 -0.267200
vn 0.906200 0.089100 -0.413500
vn 0.904400 0.120900 -0.409100
vn 0.755800 0.503600 -0.418500
vn -0.403100 0.863900 -0.302000
vn -0.582100 0.808600 -0.086000
vn -0.586200 0.805600 -0.085700
vn -0.578800 0.808200 -0.108200
vn 0.311700 0.931300 -0.188300
vn 0.238100 0.970900 -0.024500
vn -0.169100 0.900500 0.400500
vn 0.103000 0.959900 0.260900
usemtl stones2
s off
f 10/1/1 9/2/1 7/3/1
f 7/4/2 13/5/2 8/6/2
f 1/7/3 3/8/3 15/9/3
f 2/10/4 16/11/4 1/12/4
f 15/9/5 18/13/5 7/14/5
f 1/12/6 16/11/6 3/15/6
f 11/16/7 17/17/7 4/18/7
f 3/8/8 20/19/8 18/13/8
f 4/20/9 23/21/9 22/22/9
f 6/23/10 21/24/10 5/25/10
f 21/26/11 23/21/11 5/27/11
f 23/21/12 21/26/12 22/22/12
f 22/22/13 21/26/13 20/28/13
f 22/22/14 20/28/14 19/29/14
f 19/30/15 20/19/15 3/8/15
f 20/31/16 21/24/16 18/32/16
f 18/32/17 21/24/17 6/23/17
f 14/33/18 6/23/18 5/25/18
f 17/17/19 5/34/19 23/35/19
f 17/17/20 23/35/20 4/18/20
f 2/10/21 4/20/21 22/22/21
f 2/10/22 22/22/22 16/11/22
f 16/36/23 22/37/23 19/38/23
f 16/36/24 19/38/24 3/39/24
f 15/9/25 3/8/25 18/13/25
f 6/23/26 14/33/26 8/6/26
f 13/5/27 18/32/27 6/23/27
f 14/40/28 5/34/28 17/17/28
f 14/40/29 17/17/29 12/41/29
f 12/41/30 17/17/30 11/16/30
f 4/42/31 2/43/31 11/44/31
f 13/5/32 6/23/32 8/6/32
f 8/6/33 14/33/33 12/45/33
f 10/46/34 12/41/34 11/16/34
f 10/47/35 11/44/35 9/48/35
f 9/48/36 11/44/36 2/43/36
f 9/48/37 2/43/37 1/49/37
f 8/50/38 12/51/38 10/1/38
f 8/50/39 10/1/39 7/3/39
f 9/52/40 1/7/40 15/9/40
f 9/2/41 15/53/41 7/3/41
f 18/32/42 13/5/42 7/4/42
f 24/54/43 26/55/43 33/56/43
f 25/57/44 31/58/44 34/59/44
f 24/60/45 33/61/45 35/62/45
f 36/63/46 49/64/46 40/65/46
f 29/66/47 36/67/47 37/68/47
f 45/69/48 41/70/48 44/71/48
f 43/72/49 45/73/49 40/74/49
f 47/75/50 39/76/50 43/77/50
f 43/78/51 39/79/51 42/80/51
f 42/80/52 38/81/52 46/82/52
f 46/83/53 45/84/53 43/85/53
f 32/86/54 44/71/54 41/70/54
f 37/68/55 40/87/55 44/88/55
f 37/68/56 36/67/56 40/87/56
f 49/64/57 35/62/57 48/89/57
f 48/89/58 47/75/58 40/65/58
f 35/90/59 33/56/59 39/91/59
f 33/56/60 42/92/60 39/91/60
f 34/59/61 38/93/61 42/92/61
f 34/94/62 31/95/62 38/96/62
f 31/95/63 41/70/63 38/96/63
f 32/86/64 37/97/64 44/71/64
f 32/86/65 30/98/65 37/97/65
f 30/99/66 29/66/66 37/68/66
f 29/100/67 24/60/67 49/64/67
f 33/56/68 34/59/68 42/92/68
f 33/56/69 26/55/69 34/59/69
f 26/55/70 25/57/70 34/59/70
f 31/95/71 32/86/71 41/70/71
f 31/95/72 30/98/72 32/86/72
f 27/101/73 29/102/73 30/103/73
f 27/101/74 28/104/74 29/102/74
f 28/104/75 24/105/75 29/102/75
f 31/106/76 27/101/76 30/103/76
f 31/106/77 25/107/77 27/101/77
f 25/107/78 28/104/78 27/101/78
f 28/104/79 26/108/79 24/105/79
f 28/104/80 25/107/80 26/108/80
f 41/70/81 45/69/81 46/109/81
f 43/78/82 42/80/82 46/82/82
f 38/96/83 41/70/83 46/109/83
f 45/73/84 44/110/84 40/74/84
f 24/60/85 35/62/85 49/64/85
f 49/64/86 48/89/86 40/65/86
f 39/76/58 47/75/58 48/89/58
f 40/65/50 47/75/50 43/77/50
f 36/63/67 29/100/67 49/64/67
f 35/62/87 39/76/87 48/89/87
f 59/111/88 58/112/88 56/113/88
f 56/114/89 62/115/89 57/116/89
f 50/117/90 52/118/90 64/119/90
f 51/120/91 65/121/91 50/122/91
f 56/123/92 64/124/92 62/125/92
f 50/122/93 65/121/93 52/126/93
f 60/127/94 66/128/94 53/129/94
f 52/118/95 69/130/95 67/131/95
f 53/129/96 72/132/96 71/133/96
f 55/134/97 70/135/97 54/136/97
f 70/137/98 72/138/98 54/139/98
f 72/138/99 70/137/99 71/140/99
f 71/140/100 70/137/100 69/141/100
f 71/140/101 69/141/101 68/142/101
f 68/142/102 69/141/102 52/143/102
f 69/141/103 70/137/103 67/144/103
f 67/145/104 70/135/104 55/134/104
f 63/146/105 55/134/105 54/136/105
f 66/147/106 54/148/106 72/149/106
f 66/147/107 72/149/107 53/150/107
f 51/120/108 53/129/108 71/133/108
f 51/120/109 71/133/109 65/121/109
f 65/121/110 71/133/110 68/151/110
f 65/121/111 68/151/111 52/126/111
f 64/119/112 52/118/112 67/131/112
f 64/152/113 67/153/113 62/154/113
f 62/155/114 67/156/114 55/157/114
f 63/158/115 54/148/115 66/147/115
f 63/158/116 66/147/116 61/159/116
f 61/159/117 66/147/117 60/160/117
f 53/129/118 51/120/118 60/127/118
f 62/115/119 55/134/119 63/146/119
f 62/115/120 63/146/120 57/116/120
f 57/116/121 63/146/121 61/161/121
f 59/162/122 61/163/122 60/164/122
f 59/165/123 60/127/123 58/166/123
f 58/166/124 60/127/124 51/120/124
f 58/166/125 51/120/125 50/122/125
f 57/116/126 61/161/126 59/167/126
f 57/116/127 59/167/127 56/114/127
f 58/112/128 50/168/128 64/169/128
f 58/112/129 64/169/129 56/113/129
