# Blender v2.76 (sub 0) OBJ File: 'stones1.blend'
# www.blender.org
mtllib stones1.mtl
o stones1_Icosphere.002
v 1.318841 0.004566 0.277163
v 0.739735 0.009677 0.670674
v 0.815694 0.107361 0.798447
v 1.360852 0.213250 0.511360
v 0.864399 -0.015754 0.344815
v 0.840719 0.055984 0.328437
v 1.509172 -0.009708 0.455046
v 1.480265 -0.027116 0.597041
v 1.143970 -0.039265 0.772935
v 1.415025 0.160542 0.355239
v 1.470159 0.140545 0.603862
v 0.882792 0.152565 0.342670
v -0.871544 0.037604 0.852049
v -0.328744 0.025408 0.835280
v -0.322610 0.111397 0.727528
v -0.796018 0.212272 0.696898
v -0.546823 -0.002115 0.994453
v -0.536370 0.051080 1.020092
v -0.922078 0.046367 0.656241
v -0.844378 0.037888 0.574318
v -0.551504 0.016655 0.597822
v -0.897894 0.167466 0.772542
v -0.830696 0.167047 0.586106
v -0.555492 0.128836 1.000348
v -0.264326 0.215124 0.666999
v 0.741504 0.279246 0.239950
v 0.459664 0.240241 1.036439
v 0.021437 0.086422 0.393509
v 0.930413 0.123874 0.834858
v 0.957240 0.314795 0.485620
v -0.165577 0.212298 1.151710
v -0.334216 0.012467 1.155750
v -0.158352 -0.081699 0.804998
v 0.747654 -0.020771 0.306323
v 0.618772 -0.043337 1.027282
v 1.162815 0.301938 -0.373493
v -0.255722 0.359565 -0.227590
v 0.404624 0.379742 -1.110542
v 0.702878 0.112947 -0.156997
v -0.257846 0.216209 -1.053902
v -0.429454 0.431999 -0.612865
v 1.227976 0.345285 -1.013697
v 1.442314 0.083397 -0.972093
v 1.088700 -0.069531 -0.613817
v -0.233325 -0.024229 -0.340587
v 0.207099 0.012412 -1.187579
v 0.926668 -0.006881 0.758236
v -0.570863 0.031358 0.773100
v -0.071322 0.060760 -1.027739
v 0.152559 0.413996 0.995488
v -1.123667 0.469122 -0.726747
v 1.252974 -0.068972 -0.039900
v -1.432051 0.033022 0.177065
v 1.462918 0.231899 0.309357
v 1.462918 0.255512 -0.329361
v -1.542212 0.304895 0.290500
v -1.023933 0.323734 0.779912
v -1.471032 0.054930 -0.295123
v 1.021868 0.109547 -0.794623
v -1.063219 0.746161 0.797023
v 1.338532 0.598077 -0.262644
v 0.905096 0.665222 0.556537
v 0.514279 0.801120 -0.299544
v -1.289957 0.877222 0.302331
v -0.716027 0.816231 -0.776383
v 0.480574 0.682598 -0.866995
v -1.547804 0.094066 -0.109641
v -1.059710 0.072949 -1.039224
v -0.451787 0.098771 -0.152489
v -1.709735 0.056268 -0.430564
v -0.365168 0.035299 -0.984299
v -0.132469 0.362180 -0.699640
v -1.505623 0.480849 -0.184983
v -1.365088 0.414205 -0.917531
vt 0.423665 0.962739
vt 0.561153 0.923168
vt 0.480213 0.973993
vt 0.413692 0.937774
vt 0.459777 0.880394
vt 0.549635 0.861077
vt 0.520876 0.848204
vt 0.188174 0.971272
vt 0.235367 0.854851
vt 0.256373 0.875723
vt 0.290853 0.865845
vt 0.290853 0.961342
vt 0.080951 0.054197
vt 0.118408 0.048565
vt 0.055379 0.127397
vt 0.193712 0.910533
vt 0.234850 0.850904
vt 0.266922 0.846416
vt 0.386766 0.495346
vt 0.404991 0.416158
vt 0.419310 0.509701
vt 0.395666 0.533940
vt 0.386580 0.411250
vt 0.375241 0.417970
vt 0.036756 0.114768
vt 0.028424 0.100462
vt 0.877178 0.954406
vt 0.976514 0.885081
vt 0.929378 0.948915
vt 0.858491 0.936166
vt 0.873809 0.875865
vt 0.942012 0.835523
vt 0.913822 0.831207
vt 0.173571 0.839022
vt 0.173571 0.957007
vt 0.147165 0.943829
vt 0.118951 0.960249
vt 0.083704 0.872816
vt 0.143599 0.832316
vt 0.310095 0.917880
vt 0.339308 0.865841
vt 0.339308 0.960782
vt 0.408975 0.869069
vt 0.407193 0.883112
vt 0.377865 0.870935
vt 0.377330 0.905269
vt 0.407730 0.921735
vt 0.382177 0.956241
vt 0.310366 0.865049
vt 0.400506 0.960830
vt 0.413479 0.955978
vt 0.079114 0.866116
vt 0.983120 0.883382
vt 0.983731 0.280883
vt 0.896543 0.495358
vt 0.928295 0.263154
vt 0.070900 0.944062
vt 0.024891 0.857867
vt 0.070900 0.855383
vt 0.835013 0.931885
vt 0.807514 0.809065
vt 0.850460 0.768085
vt 0.871543 0.384149
vt 0.869702 0.291162
vt 0.960670 0.027322
vt 0.987362 0.088443
vt 0.862062 0.046150
vt 0.926964 0.220948
vt 0.984421 0.261353
vt 0.857627 0.177435
vt 0.987362 0.230629
vt 0.857627 0.355108
vt 0.898231 0.012635
vt 0.850460 0.978378
vt 0.771832 0.934249
vt 0.044470 0.987365
vt 0.005337 0.917161
vt 0.983731 0.476949
vt 0.181723 0.557115
vt 0.017507 0.811089
vt 0.114561 0.519337
vt 0.133918 0.809520
vt 0.024051 0.853583
vt 0.181723 0.732992
vt 0.012638 0.661879
vt 0.034654 0.546399
vt 0.213318 0.825338
vt 0.183528 0.744245
vt 0.342461 0.811033
vt 0.274345 0.577874
vt 0.204010 0.519337
vt 0.361219 0.640115
vt 0.888945 0.565945
vt 0.937325 0.529162
vt 0.937325 0.755208
vt 0.872969 0.714227
vt 0.889617 0.830678
vt 0.304780 0.457563
vt 0.361796 0.395271
vt 0.368317 0.530468
vt 0.296497 0.530468
vt 0.361219 0.812674
vt 0.314666 0.560370
vt 0.135748 0.100265
vt 0.303166 0.012635
vt 0.382011 0.045895
vt 0.112763 0.458532
vt 0.012638 0.340183
vt 0.040281 0.464162
vt 0.040827 0.198719
vt 0.719379 0.238324
vt 0.732004 0.012635
vt 0.792509 0.054718
vt 0.535863 0.799407
vt 0.464523 0.856120
vt 0.485729 0.793670
vt 0.535863 0.675799
vt 0.488319 0.695773
vt 0.528564 0.590747
vt 0.709802 0.473407
vt 0.531440 0.521492
vt 0.717574 0.403850
vt 0.616478 0.189472
vt 0.597382 0.039864
vt 0.717574 0.186691
vt 0.456234 0.129018
vt 0.438242 0.485772
vt 0.383816 0.266592
vt 0.794093 0.527362
vt 0.746992 0.437827
vt 0.855821 0.501949
vt 0.840299 0.330915
vt 0.855821 0.119871
vt 0.383816 0.706818
vt 0.448691 0.523293
vt 0.409918 0.798859
vt 0.412182 0.119798
vt 0.488919 0.020697
vt 0.173509 0.028678
vt 0.604000 0.012635
vt 0.142499 0.517536
vt 0.253367 0.485380
vt 0.382011 0.330264
vt 0.701756 0.782673
vt 0.642914 0.809652
vt 0.552660 0.563975
vt 0.701756 0.585211
vt 0.604113 0.523293
vt 0.577740 0.978817
vt 0.558583 0.883548
vt 0.649666 0.958178
vt 0.871163 0.754548
vt 0.737174 0.757672
vt 0.871163 0.529162
vt 0.761791 0.564926
vt 0.682768 0.940595
vt 0.767309 0.770600
vt 0.767309 0.986195
vt 0.649666 0.829389
vt 0.561800 0.822526
vt 0.719379 0.757287
vt 0.687573 0.821092
vt 0.537669 0.688432
vn 0.028100 -0.993600 -0.109800
vn -0.031100 -0.991300 -0.127900
vn -0.255000 -0.689000 0.678400
vn 0.114000 0.842100 0.527100
vn 0.590900 0.804000 -0.066400
vn -0.006600 0.946700 -0.321900
vn -0.151700 0.985500 0.075400
vn -0.757800 0.650800 -0.047000
vn 0.243900 0.391700 0.887200
vn 0.977400 0.050600 0.205200
vn 0.901100 0.400000 -0.167600
vn 0.014600 0.440400 -0.897700
vn 0.463700 -0.008100 0.886000
vn 0.679700 -0.053000 -0.731500
vn -0.085500 0.181600 -0.979600
vn -0.130700 -0.261500 -0.956300
vn -0.885900 0.416100 -0.205100
vn -0.880100 -0.360900 -0.308500
vn -0.127300 -0.991500 0.028700
vn 0.021100 -0.997400 -0.068500
vn -0.115000 -0.993300 -0.014800
vn -0.074800 -0.996700 0.032200
vn 0.557300 -0.664200 -0.498300
vn 0.214800 0.878900 -0.426000
vn -0.507400 0.841700 -0.184800
vn -0.136800 0.922100 0.362000
vn 0.200400 0.973600 0.108800
vn 0.634300 0.586300 0.504000
vn 0.284400 0.462500 -0.839700
vn -0.711400 0.138200 -0.689000
vn -0.836200 0.457400 -0.302400
vn -0.480800 0.384800 0.787900
vn 0.085600 0.081600 -0.993000
vn -0.967800 -0.044700 0.247800
vn -0.448900 0.114600 0.886200
vn -0.412700 -0.328400 0.849600
vn 0.649500 0.333300 0.683400
vn 0.563700 -0.445900 0.695300
vn 0.090400 -0.994700 -0.048100
vn -0.087100 -0.995100 -0.046100
vn -0.115600 0.992400 -0.042100
vn -0.753200 0.638800 0.157200
vn -0.322600 0.680900 -0.657500
vn 0.394700 0.793100 0.463900
vn 0.501600 -0.862800 0.062700
vn -0.023200 -0.968400 0.248300
vn 0.055400 -0.998200 -0.021300
vn -0.182600 -0.879700 -0.439200
vn 0.128000 -0.088100 0.987900
vn 0.428500 0.212100 0.878300
vn 0.874600 -0.450500 -0.179100
vn 0.754400 -0.127000 -0.644100
vn -0.147800 -0.216500 -0.965000
vn -0.707800 -0.489500 -0.509300
vn -0.843600 -0.442600 -0.304100
vn 0.177900 0.068100 0.981700
vn -0.023500 0.993300 0.113200
vn -0.056300 0.998300 0.017300
vn 0.086900 0.985400 0.146100
vn 0.758700 0.640100 0.120600
vn 0.104800 0.628100 0.771000
vn -0.247500 0.828800 -0.501800
vn -0.450700 -0.850500 -0.271200
vn 0.106700 -0.948100 -0.299400
vn -0.048200 -0.996500 -0.068200
vn 0.053300 -0.911000 0.408900
vn 0.172700 -0.015100 -0.984900
vn -0.150100 0.279600 -0.948300
vn -0.883300 -0.452600 -0.122200
vn -0.910400 -0.164900 0.379500
vn -0.143600 -0.287200 0.947000
vn 0.529600 -0.532700 0.660100
vn 0.719700 -0.472600 0.508600
vn 0.121500 0.140800 -0.982600
vn 0.045200 0.998600 -0.029100
vn 0.047900 0.996200 0.072300
vn 0.032000 -0.998300 -0.049000
vn -0.047100 -0.998700 0.017600
vn 0.585200 -0.754200 0.297900
vn -0.004100 -0.496700 0.867900
vn -0.407000 -0.473000 -0.781400
vn -0.154500 -0.261600 0.952700
vn -0.916700 -0.395400 0.057300
vn -0.627500 0.683700 -0.372500
vn 0.242700 0.946600 -0.212100
vn 0.092900 0.973500 -0.208900
vn 0.028300 0.998700 -0.041400
vn 0.081700 0.989400 0.119800
vn 0.067600 0.971700 0.226400
vn 0.108300 0.771300 0.627200
vn 0.237000 0.970400 0.045900
vn 0.617900 0.360400 -0.698800
vn 0.548400 0.427300 -0.718800
vn -0.040800 0.283900 -0.958000
vn -0.226500 0.127900 -0.965600
vn -0.861600 0.408600 -0.301300
vn -0.877900 0.392600 -0.274300
vn -0.813500 0.348900 0.465300
vn -0.175800 -0.056200 0.982800
vn 0.414800 0.273700 0.867800
vn 0.550900 0.256100 0.794300
vn 0.664300 0.686700 0.295200
vn 0.205000 0.070400 -0.976200
vn -0.681800 -0.092800 0.725600
vn -0.583800 -0.502600 0.637600
vn -0.423300 -0.670100 0.609700
vn 0.940700 0.339100 0.012500
vn 0.830900 -0.556000 -0.020600
vn 0.608700 -0.709900 -0.354300
vn 0.097800 -0.961400 -0.257300
vn -0.037800 -0.996100 -0.080100
vn -0.024800 -0.997400 0.067500
vn 0.027100 -0.994300 0.103400
vn 0.752100 -0.646600 0.127700
vn -0.641500 -0.326600 -0.694100
vn 0.056100 0.995200 -0.079800
vn 0.271700 0.795500 0.541600
vn 0.165600 0.577900 -0.799100
vn -0.829900 0.518300 -0.206400
vn -0.886600 0.179700 0.426200
vn 0.037600 0.187100 0.981600
vn 0.093900 0.407900 -0.908200
vn -0.047800 -0.995800 -0.078300
vn 0.007300 -0.997000 0.076800
usemtl stones1
s off
f 7/1/1 5/2/1 1/3/1
f 7/1/2 8/4/2 9/5/2
f 2/6/3 9/5/3 3/7/3
f 3/8/4 11/9/4 4/10/4
f 11/9/5 10/11/5 4/10/5
f 4/10/6 10/11/6 12/12/6
f 12/12/7 3/8/7 4/10/7
f 2/13/8 3/14/8 12/15/8
f 9/16/9 11/9/9 3/8/9
f 8/17/10 7/18/10 11/9/10
f 7/18/11 10/11/11 11/9/11
f 1/19/12 12/20/12 10/21/12
f 9/16/13 8/17/13 11/9/13
f 7/22/14 1/19/14 10/21/14
f 1/19/15 6/23/15 12/20/15
f 1/19/16 5/24/16 6/23/16
f 6/25/17 2/13/17 12/15/17
f 6/25/18 5/26/18 2/13/18
f 5/2/19 9/5/19 2/6/19
f 5/2/20 7/1/20 9/5/20
f 19/27/21 17/28/21 13/29/21
f 19/27/22 20/30/22 21/31/22
f 14/32/23 21/31/23 15/33/23
f 15/34/24 23/35/24 16/36/24
f 23/35/25 22/37/25 16/36/25
f 16/36/26 22/37/26 24/38/26
f 24/38/27 15/34/27 16/36/27
f 14/39/28 15/34/28 24/38/28
f 21/40/29 23/41/29 15/42/29
f 20/43/30 19/44/30 23/45/30
f 19/44/31 22/46/31 23/45/31
f 13/47/32 24/48/32 22/46/32
f 21/40/33 20/49/33 23/41/33
f 19/44/34 13/47/34 22/46/34
f 13/47/35 18/50/35 24/48/35
f 13/47/36 17/51/36 18/50/36
f 18/52/37 14/39/37 24/38/37
f 18/53/38 17/28/38 14/32/38
f 17/28/39 21/31/39 14/32/39
f 17/28/40 19/27/40 21/31/40
f 26/54/41 31/55/41 30/56/41
f 25/57/42 32/58/42 31/59/42
f 26/60/43 28/61/43 25/62/43
f 27/63/44 29/64/44 30/56/44
f 29/65/45 35/66/45 34/67/45
f 33/68/46 35/66/46 32/69/46
f 35/66/47 33/68/47 34/67/47
f 34/67/48 33/68/48 28/70/48
f 31/71/49 32/69/49 35/66/49
f 27/63/50 35/72/50 29/64/50
f 30/73/51 29/65/51 34/67/51
f 30/74/52 34/75/52 26/60/52
f 26/60/53 34/75/53 28/61/53
f 25/57/54 28/76/54 33/77/54
f 25/57/55 33/77/55 32/58/55
f 31/55/56 35/72/56 27/63/56
f 31/55/57 27/63/57 30/56/57
f 26/54/58 25/78/58 31/55/58
f 37/79/59 42/80/59 41/81/59
f 36/82/60 43/83/60 42/80/60
f 37/79/61 39/84/61 36/82/61
f 38/85/62 40/86/62 41/81/62
f 40/87/63 46/88/63 45/89/63
f 44/90/64 46/88/64 43/91/64
f 46/88/65 44/90/65 45/89/65
f 45/89/66 44/90/66 39/92/66
f 42/93/67 43/94/67 46/95/67
f 38/96/68 46/95/68 40/97/68
f 41/98/69 40/99/69 45/100/69
f 41/98/70 45/100/70 37/101/70
f 37/102/71 45/89/71 39/92/71
f 36/103/72 39/92/72 44/90/72
f 36/103/73 44/90/73 43/91/73
f 42/93/74 46/95/74 38/96/74
f 42/80/75 38/85/75 41/81/75
f 37/79/76 36/82/76 42/80/76
f 48/104/77 53/105/77 58/106/77
f 48/104/78 58/106/78 52/107/78
f 47/108/79 52/107/79 54/109/79
f 48/104/80 47/108/80 50/110/80
f 49/111/81 58/112/81 51/113/81
f 48/114/82 50/115/82 57/116/82
f 53/117/83 56/118/83 58/119/83
f 51/120/84 64/121/84 65/122/84
f 63/123/85 61/124/85 66/125/85
f 66/125/86 65/122/86 63/123/86
f 65/122/87 64/121/87 63/123/87
f 64/121/88 62/126/88 63/123/88
f 64/121/89 60/127/89 62/126/89
f 60/127/90 50/128/90 62/126/90
f 62/126/91 61/124/91 63/123/91
f 55/129/92 59/130/92 61/131/92
f 59/130/93 66/132/93 61/131/93
f 49/111/94 65/133/94 66/132/94
f 49/111/95 51/113/95 65/133/95
f 58/119/96 64/134/96 51/135/96
f 58/119/97 56/118/97 64/134/97
f 56/118/98 60/136/98 64/134/98
f 57/116/99 50/115/99 60/136/99
f 47/137/100 62/126/100 50/128/100
f 47/137/101 54/138/101 62/126/101
f 54/138/102 61/124/102 62/126/102
f 59/130/103 49/111/103 66/132/103
f 56/118/104 57/116/104 60/136/104
f 56/118/105 53/117/105 57/116/105
f 53/105/106 48/104/106 57/139/106
f 54/138/107 55/140/107 61/124/107
f 54/109/108 52/107/108 55/141/108
f 52/107/109 59/142/109 55/141/109
f 52/107/110 49/143/110 59/142/110
f 52/107/111 58/106/111 49/143/111
f 48/104/112 52/107/112 47/108/112
f 67/144/113 70/145/113 71/146/113
f 69/147/114 71/146/114 72/148/114
f 68/149/115 70/150/115 74/151/115
f 74/152/116 73/153/116 72/154/116
f 73/153/117 69/155/117 72/154/117
f 71/156/118 74/157/118 72/158/118
f 70/150/119 73/159/119 74/151/119
f 70/150/120 67/160/120 73/159/120
f 67/161/121 69/155/121 73/153/121
f 71/156/122 68/162/122 74/157/122
f 71/146/123 70/145/123 68/163/123
f 67/144/124 71/146/124 69/147/124
